<?xml version="1.0" encoding="utf-8"?>
<!-- Generator: Adobe Illustrator 24.3.0, SVG Export Plug-In . SVG Version: 6.00 Build 0)  -->
<svg version="1.1" id="Layer_1" xmlns="http://www.w3.org/2000/svg" xmlns:xlink="http://www.w3.org/1999/xlink" x="0px" y="0px"
	 viewBox="0 0 35 35" style="enable-background:new 0 0 35 35;" xml:space="preserve">
<style type="text/css">
	.st0{fill:#FFFFFF;}
</style>
<path class="st0" d="M3.9,9.3c0-0.4,0.2-0.8,0.5-1C4.7,8.1,5,8,5.4,8.1h20.9v3.7c0,0.1,0.1,0.2,0.2,0.2l0,0l7.3-5.3
	c0.5-0.5,0.5-1-0.2-1l-7.3-5.3c-0.2,0-0.2,0-0.2,0.2v3.6H5.1C2.4,4.1,0.1,6.3,0,9.1v9.7h3.9V9.3z"/>
<path class="st0" d="M31.1,15.9v9.5c0,0.4-0.2,0.8-0.5,1c-0.3,0.3-0.8,0.5-1.2,0.5H9v-3.7c0-0.1-0.1-0.2-0.2-0.2c0,0,0,0,0,0l0,0
	l-7.3,5.3c-0.3,0.3-0.3,0.7,0,1l7.3,5.3c0.2,0,0.2,0,0.2-0.2v-3.9h20.4c1.4,0,2.8-0.5,3.9-1.4c1-1,1.6-2.3,1.7-3.7v-9.5H31.1z"/>
</svg>
