<?xml version="1.0" encoding="utf-8"?>
<!-- Generator: Adobe Illustrator 24.3.0, SVG Export Plug-In . SVG Version: 6.00 Build 0)  -->
<svg version="1.1" id="Layer_1" xmlns="http://www.w3.org/2000/svg" xmlns:xlink="http://www.w3.org/1999/xlink" x="0px" y="0px"
	 viewBox="0 0 35 35" style="enable-background:new 0 0 35 35;" xml:space="preserve">
<style type="text/css">
	.st0{fill:#FFFFFF;}
</style>
<path class="st0" d="M28,0.2L17.6,8.5l-0.2,0.2h-11C5.7,8.6,5.1,9.1,5,9.8c0,0,0,0.1,0,0.1v14.9c0,0.7,0.6,1.3,1.3,1.3c0,0,0,0,0,0
	h11l0.2,0.2l10.4,8.3c0.6,0.4,1.4,0.4,1.8-0.2c0.2-0.2,0.3-0.5,0.3-0.8V1.2c0-0.7-0.5-1.2-1.2-1.2C28.5,0,28.2,0.1,28,0.2z"/>
</svg>
