<?xml version="1.0" encoding="utf-8"?>
<!-- Generator: Adobe Illustrator 24.3.0, SVG Export Plug-In . SVG Version: 6.00 Build 0)  -->
<svg version="1.1" id="Layer_1" xmlns="http://www.w3.org/2000/svg" xmlns:xlink="http://www.w3.org/1999/xlink" x="0px" y="0px"
	 viewBox="0 0 35 35" style="enable-background:new 0 0 35 35;" xml:space="preserve">
<style type="text/css">
	.st0{fill:#FFFFFF;}
</style>
<path class="st0" d="M31.2,0.3L8,14.5V3.1c0-1.5-1.2-2.8-2.8-2.8H3.8C2.4,0.2,1.1,1.2,1,2.7c0,0,0,0,0,0C1,2.8,1,3,1,3.1v29.1
	C1,33.7,2.3,35,3.8,35c0,0,0,0,0,0h1.4c1.5-0.1,2.7-1.3,2.8-2.8V20.4l23.2,14c1.1,0.8,2,0,2-1.1V1.4C33.2,0,32.4-0.3,31.2,0.3z"/>
</svg>
