<?xml version="1.0" encoding="utf-8"?>
<!-- Generator: Adobe Illustrator 24.3.0, SVG Export Plug-In . SVG Version: 6.00 Build 0)  -->
<svg version="1.1" id="Layer_1" xmlns="http://www.w3.org/2000/svg" xmlns:xlink="http://www.w3.org/1999/xlink" x="0px" y="0px"
	 viewBox="0 0 35 35" style="enable-background:new 0 0 35 35;" xml:space="preserve">
<style type="text/css">
	.st0{fill:#FFFFFF;}
</style>
<path class="st0" d="M22.5,9.1h4.9v3.6c0,0.2,0,0.2,0.2,0.2l7.2-5.4c0.2-0.3,0.2-0.6,0-0.9l-7.2-5.4c-0.2,0-0.2,0-0.2,0.2v3.8h-4.9
	c-1.7,0-3.3,0.5-4.7,1.3c0.9,0.9,1.6,2,2,3.2C20.6,9.3,21.5,9.1,22.5,9.1z"/>
<path class="st0" d="M34.6,27.5l-7.2-5.4c-0.2,0-0.2,0-0.2,0.2v3.6h-4.9c-2.8,0.1-5.1-2.2-5.2-5c0,0,0,0,0,0V16
	C17.1,9.6,12,4.4,5.6,4.4c-0.1,0-0.1,0-0.2,0H0v3.8h5.4c4.3,0.1,7.8,3.5,7.9,7.8v4.7c0,5.1,4.1,9.3,9.2,9.3c0,0,0,0,0,0h4.9v3.6
	c0,0.2,0,0.2,0.2,0.2l7.2-5.4c0.2-0.2,0.2-0.6,0-0.8C34.8,27.6,34.7,27.5,34.6,27.5z"/>
<path class="st0" d="M5.4,27H0v3.8h5.4c2.5-0.1,4.9-0.8,7-2.2c-0.7-1.2-1.3-2.5-1.6-3.8C9.4,26.2,7.4,27,5.4,27z"/>
</svg>
