<?xml version="1.0" encoding="utf-8"?>
<!-- Generator: Adobe Illustrator 24.3.0, SVG Export Plug-In . SVG Version: 6.00 Build 0)  -->
<svg version="1.1" id="Layer_1" xmlns="http://www.w3.org/2000/svg" xmlns:xlink="http://www.w3.org/1999/xlink" x="0px" y="0px"
	 viewBox="0 0 35 35" style="enable-background:new 0 0 35 35;" xml:space="preserve">
<style type="text/css">
	.st0{fill-rule:evenodd;clip-rule:evenodd;fill:#FFFFFF;}
</style>
<path class="st0" d="M0,4.4v26.2h35V4.4H0z M30.4,25.4c-0.2,0.3-0.6,0.5-0.9,0.7c-1.1,0.8-6.1,1.1-11.9,1.1S6.6,26.9,5.5,26.1
	c-0.3-0.2-0.7-0.4-0.9-0.7c-1.1-1.4-1.2-3.4-1.3-8s0.2-6.6,1.3-8c0.3-0.3,0.6-0.5,0.9-0.7c1-0.8,6.3-1.1,12.1-1.1s10.8,0.3,11.9,1.1
	c0.3,0.2,0.6,0.4,0.9,0.7c1.1,1.4,1.3,3.4,1.3,8S31.5,24,30.4,25.4z"/>
<path class="st0" d="M16.9,16.2c-0.3-3.6-2.2-5.7-5.6-5.7c-3.1,0-5.6,2.8-5.6,7.3s2.2,7.4,5.9,7.4c3,0,5-2.2,5.3-5.8h-3.5
	c-0.1,1.3-0.7,2.4-1.9,2.4c-1.9,0-2.2-1.8-2.2-3.8c0-2.7,0.8-4.1,2.1-4.1c1.1,0,1.9,0.8,2,2.3H16.9z"/>
<path class="st0" d="M29,16.2c-0.3-3.6-2.2-5.7-5.6-5.7c-3.1,0-5.6,2.8-5.6,7.3s2.2,7.4,5.9,7.4c3,0,5-2.2,5.3-5.8h-3.5
	c-0.1,1.3-0.7,2.4-1.9,2.4c-1.9,0-2.2-1.8-2.2-3.8c0-2.7,0.8-4.1,2.1-4.1s1.9,0.8,2,2.3H29z"/>
</svg>
