<?xml version="1.0" encoding="utf-8"?>
<!-- Generator: Adobe Illustrator 24.3.0, SVG Export Plug-In . SVG Version: 6.00 Build 0)  -->
<svg version="1.1" id="Layer_1" xmlns="http://www.w3.org/2000/svg" xmlns:xlink="http://www.w3.org/1999/xlink" x="0px" y="0px"
	 viewBox="0 0 35 35" style="enable-background:new 0 0 35 35;" xml:space="preserve">
<style type="text/css">
	.st0{fill:#FFFFFF;}
</style>
<path class="st0" d="M4.7,0h4.8c1.2,0,2.2,1,2.2,2.2v30.6c0,1.2-1,2.2-2.2,2.2H4.7c-1.2,0-2.2-1-2.2-2.2V2.2C2.5,1,3.5,0,4.7,0z"/>
<path class="st0" d="M26.2,0H31c1.2,0,2.2,1,2.2,2.2v30.6c0,1.2-1,2.2-2.2,2.2h-4.8C25,35,24,34,24,32.8V2.2C24,1,25,0,26.2,0z"/>
</svg>
