<?xml version="1.0" encoding="utf-8"?>
<!-- Generator: Adobe Illustrator 24.3.0, SVG Export Plug-In . SVG Version: 6.00 Build 0)  -->
<svg version="1.1" id="Layer_1" xmlns="http://www.w3.org/2000/svg" xmlns:xlink="http://www.w3.org/1999/xlink" x="0px" y="0px"
	 viewBox="0 0 35 35" style="enable-background:new 0 0 35 35;" xml:space="preserve">
<style type="text/css">
	.st0{fill:#FFFFFF;}
</style>
<path class="st0" d="M26.6,9.4c4.2,5.3,3.3,12.9-2,17.1s-12.9,3.3-17.1-2C3.8,19.9,4,13.3,8,8.9L4.6,5.4c-6.4,6.9-6,17.6,0.9,24
	s17.6,6,24-0.9c5.9-6.3,6.1-16,0.5-22.6L26.6,9.4z"/>
<path class="st0" d="M20.4,2.8c-0.2-0.8,0.3-1.6,1.1-1.8c0.2-0.1,0.5-0.1,0.7,0l11.8,1.6c1.2,0.2,1.4,1,0.6,1.8L23.9,15.1
	c-0.8,0.8-1.6,0.6-1.8-0.6L20.4,2.8z"/>
</svg>
