<?xml version="1.0" encoding="utf-8"?>
<!-- Generator: Adobe Illustrator 24.3.0, SVG Export Plug-In . SVG Version: 6.00 Build 0)  -->
<svg version="1.1" id="Layer_1" xmlns="http://www.w3.org/2000/svg" xmlns:xlink="http://www.w3.org/1999/xlink" x="0px" y="0px"
	 viewBox="0 0 35 35" style="enable-background:new 0 0 35 35;" xml:space="preserve">
<style type="text/css">
	.st0{fill:#FFFFFF;}
</style>
<path class="st0" d="M30.5,19.2c0.1-0.6,0.1-1.2,0.1-1.7c0-0.6-0.1-1.2-0.1-1.7l3.7-2.9c0.3-0.3,0.4-0.8,0.2-1.1l-3.5-6.1
	c-0.2-0.4-0.7-0.5-1.1-0.4l-4.4,1.7c-0.9-0.7-1.9-1.3-2.9-1.7l-0.7-4.6C21.8,0.3,21.5,0,21,0h-7c-0.4,0-0.8,0.3-0.8,0.7l-0.7,4.6
	c-1.1,0.4-2.1,1-3,1.7L5.2,5.3c-0.4-0.2-0.9,0-1.1,0.4l-3.5,6.1c-0.2,0.4-0.1,0.9,0.2,1.1l3.7,2.9c-0.1,0.6-0.1,1.2-0.1,1.7
	c0,0.6,0.1,1.2,0.1,1.7l-3.7,2.9c-0.3,0.3-0.4,0.8-0.2,1.1l3.5,6.1c0.2,0.4,0.7,0.5,1.1,0.4l4.4-1.7c0.9,0.7,1.9,1.3,2.9,1.7
	l0.7,4.6c0.1,0.4,0.4,0.7,0.9,0.7h7c0.4,0,0.8-0.3,0.8-0.7l0.7-4.6c1.1-0.4,2-1,2.9-1.7l4.4,1.7c0.4,0.2,0.9,0,1.1-0.4l3.5-6.1
	c0.2-0.4,0.1-0.9-0.2-1.1L30.5,19.2z M17.5,23.6c-3.4,0-6.1-2.7-6.1-6.1c0-3.4,2.7-6.1,6.1-6.1c3.4,0,6.1,2.7,6.1,6.1
	C23.6,20.9,20.8,23.6,17.5,23.6L17.5,23.6z"/>
</svg>
