<?xml version="1.0" encoding="utf-8"?>
<!-- Generator: Adobe Illustrator 24.3.0, SVG Export Plug-In . SVG Version: 6.00 Build 0)  -->
<svg version="1.1" id="Layer_1" xmlns="http://www.w3.org/2000/svg" xmlns:xlink="http://www.w3.org/1999/xlink" x="0px" y="0px"
	 viewBox="0 0 35 35" style="enable-background:new 0 0 35 35;" xml:space="preserve">
<style type="text/css">
	.st0{fill:#FFFFFF;}
</style>
<path class="st0" d="M27.8,28.7c-0.6,0-1.2-0.3-1.5-0.9c-0.5-0.8-0.2-1.9,0.6-2.4c4.4-2.6,5.9-8.2,3.4-12.6c-0.8-1.4-2-2.6-3.4-3.4
	C26,9.1,25.6,8,26,7.1s1.4-1.3,2.3-0.8c0.1,0,0.2,0.1,0.3,0.2c6.1,3.6,8.1,11.4,4.5,17.5c-1.1,1.9-2.7,3.4-4.5,4.5
	C28.4,28.7,28.1,28.7,27.8,28.7z"/>
<path class="st0" d="M24.5,23.1c-0.6,0-1.2-0.3-1.5-0.9c-0.5-0.8-0.2-1.9,0.6-2.4c1.3-0.7,1.7-2.3,1-3.6c-0.2-0.4-0.6-0.8-1-1
	c-0.8-0.6-1-1.7-0.4-2.4c0.5-0.7,1.4-0.9,2.2-0.6c2.9,1.7,3.9,5.4,2.3,8.3c-0.5,0.9-1.3,1.7-2.3,2.3C25.1,23,24.8,23.1,24.5,23.1z"
	/>
<path class="st0" d="M17.8,4.1l-8.1,6.4l-0.2,0.2H1c-0.6,0-1,0.4-1,1v11.6c0,0.6,0.4,1,1,1h8.5l0.1,0.2l8.1,6.5
	c0.4,0.3,1.1,0.3,1.4-0.2c0.1-0.2,0.2-0.4,0.2-0.6V4.9c0-0.6-0.5-1-1-1C18.1,4,17.9,4,17.8,4.1z"/>
</svg>
