<?xml version="1.0" encoding="utf-8"?>
<!-- Generator: Adobe Illustrator 24.3.0, SVG Export Plug-In . SVG Version: 6.00 Build 0)  -->
<svg version="1.1" id="Layer_1" xmlns="http://www.w3.org/2000/svg" xmlns:xlink="http://www.w3.org/1999/xlink" x="0px" y="0px"
	 viewBox="0 0 35 35" style="enable-background:new 0 0 35 35;" xml:space="preserve">
<style type="text/css">
	.st0{fill:#FFFFFF;}
</style>
<path class="st0" d="M30.1,24.3c-0.8,0-1.5-0.4-1.9-1.1c-0.6-1-0.2-2.3,0.8-3c1.6-0.9,2.1-2.8,1.3-4.4c-0.3-0.5-0.7-1-1.3-1.3
	c-1-0.6-1.3-2-0.7-3c0.6-1,1.9-1.3,2.9-0.7c3.6,2.1,4.9,6.7,2.8,10.3c-0.7,1.2-1.6,2.1-2.8,2.8C30.9,24.2,30.5,24.3,30.1,24.3z"/>
<path class="st0" d="M21.9,1L12,8.9L11.8,9H1.2C0.5,9,0,9.6,0,10.3c0,0,0,0,0,0v14.3c0,0.7,0.5,1.2,1.2,1.2h10.5l0.2,0.2l9.9,7.9
	c0.5,0.4,1.3,0.4,1.7-0.2c0.2-0.2,0.3-0.5,0.3-0.8V2c0.1-0.6-0.4-1.2-1-1.3C22.5,0.7,22.1,0.8,21.9,1z"/>
</svg>
