<svg width="50" height="50" viewBox="0 0 50 50" fill="none" xmlns="http://www.w3.org/2000/svg">
<path d="M6.03687 8.71085C17.6587 -4.81407 39.2085 -2.14534 47.2616 13.6546C41.5898 13.6577 32.7117 13.6514 27.9024 13.6546C24.4149 13.6546 22.1618 13.5764 19.7243 14.8608C16.8587 16.3702 14.6931 19.167 13.9399 22.4545L6.03687 8.71085Z" fill="#F44336"/>
<path d="M16.6838 25.0019C16.6838 29.5863 20.4119 33.3144 24.9932 33.3144C29.5744 33.3144 33.3025 29.5863 33.3025 25.0019C33.3025 20.4176 29.5744 16.6895 24.9932 16.6895C20.4088 16.6863 16.6838 20.4176 16.6838 25.0019Z" fill="#2196F3"/>
<path d="M28.2158 35.8827C23.5533 37.267 18.094 35.7327 15.1065 30.5702C12.8253 26.6327 6.79406 16.1297 4.05657 11.3516C-5.54337 26.064 2.72845 46.1107 20.1534 49.5326L28.2158 35.8827Z" fill="#4CAF50"/>
<path d="M32.7083 16.6862C36.5926 20.2987 37.4395 26.1487 34.8083 30.683C32.827 34.1018 26.499 44.7798 23.4333 49.9485C41.3864 51.0548 54.4738 33.4611 48.5613 16.6831L32.7083 16.6862Z" fill="#FFC107"/>
</svg>
