<svg width="50" height="50" viewBox="0 0 50 50" fill="none" xmlns="http://www.w3.org/2000/svg">
<g clip-path="url(#clip0)">
<path d="M45.0721 9.81278C40.5427 3.86202 33.4811 0.153338 26.0542 0.00547764C20.2362 -0.110346 16.2162 1.63386 13.9417 3.03609C16.9848 1.27546 21.388 0.276876 25.2433 0.326003C35.1611 0.452365 45.8122 7.18955 47.3942 19.3345C49.2102 33.2759 39.4774 44.9115 25.7847 44.9466C10.7209 44.9852 1.55894 31.6786 3.95349 19.7267C4.07307 19.1299 4.01338 18.5494 4.21273 17.9853C4.32685 15.8838 5.1226 12.5897 6.83921 9.22397C5.10474 10.1192 2.89586 12.9517 1.80525 15.5755C0.232988 19.3579 -0.321104 23.8812 0.177686 28.1847C0.215235 28.5087 0.249246 28.8317 0.291711 29.1529C2.30928 40.989 12.6144 50 25.0255 50C38.8841 50 50.1187 38.7654 50.1187 24.9068C50.1187 19.2404 48.2398 14.0133 45.0721 9.81278ZM5.35539 11.9919L5.3553 11.992L5.35539 11.9919Z" fill="url(#paint0_radial)"/>
<g opacity="0.67">
<path opacity="0.67" d="M45.0721 9.81278C40.5427 3.86202 33.4811 0.153338 26.0542 0.00547764C20.2362 -0.110346 16.2162 1.63386 13.9417 3.03609C16.9848 1.27546 21.388 0.276876 25.2433 0.326003C35.1611 0.452365 45.8122 7.18955 47.3942 19.3345C49.2102 33.2759 39.4774 44.9115 25.7847 44.9466C10.7209 44.9852 1.55894 31.6786 3.95349 19.7267C4.07307 19.1299 4.01338 18.5494 4.21273 17.9853C4.32685 15.8838 5.1226 12.5897 6.83921 9.22397C5.10474 10.1192 2.89586 12.9517 1.80525 15.5755C0.232988 19.3579 -0.321104 23.8812 0.177686 28.1847C0.215235 28.5087 0.249246 28.8317 0.291711 29.1529C2.30928 40.989 12.6144 50 25.0255 50C38.8841 50 50.1187 38.7654 50.1187 24.9068C50.1187 19.2404 48.2398 14.0133 45.0721 9.81278ZM5.35539 11.9919L5.3553 11.992L5.35539 11.9919Z" fill="url(#paint1_radial)"/>
</g>
<path d="M45.0721 9.81278C40.5427 3.86202 33.4811 0.153338 26.0542 0.00547764C20.2362 -0.110346 16.2162 1.63386 13.9417 3.03609C16.9848 1.27546 21.388 0.276876 25.2433 0.326003C35.1611 0.452365 45.8122 7.18955 47.3942 19.3345C49.2102 33.2759 39.4774 44.9115 25.7847 44.9466C10.7209 44.9852 1.55894 31.6786 3.95349 19.7267C4.07307 19.1299 4.01338 18.5494 4.21273 17.9853C4.32685 15.8838 5.1226 12.5897 6.83921 9.22397C5.10474 10.1192 2.89586 12.9517 1.80525 15.5755C0.232988 19.3579 -0.321104 23.8812 0.177686 28.1847C0.215235 28.5087 0.249246 28.8317 0.291711 29.1529C2.30928 40.989 12.6144 50 25.0255 50C38.8841 50 50.1187 38.7654 50.1187 24.9068C50.1187 19.2404 48.2398 14.0133 45.0721 9.81278ZM5.35539 11.9919L5.3553 11.992L5.35539 11.9919Z" fill="url(#paint2_radial)"/>
<path d="M45.0721 9.81278C40.5427 3.86202 33.4811 0.153338 26.0542 0.00547764C20.2362 -0.110346 16.2162 1.63386 13.9417 3.03609C16.9848 1.27546 21.388 0.276876 25.2433 0.326003C35.1611 0.452365 45.8122 7.18955 47.3942 19.3345C49.2102 33.2759 39.4774 44.9115 25.7847 44.9466C10.7209 44.9852 1.55894 31.6786 3.95349 19.7267C4.07307 19.1299 4.01338 18.5494 4.21273 17.9853C4.32685 15.8838 5.1226 12.5897 6.83921 9.22397C5.10474 10.1192 2.89586 12.9517 1.80525 15.5755C0.232988 19.3579 -0.321104 23.8812 0.177686 28.1847C0.215235 28.5087 0.249246 28.8317 0.291711 29.1529C2.30928 40.989 12.6144 50 25.0255 50C38.8841 50 50.1187 38.7654 50.1187 24.9068C50.1187 19.2404 48.2398 14.0133 45.0721 9.81278ZM5.35539 11.9919L5.3553 11.992L5.35539 11.9919Z" fill="url(#paint3_radial)"/>
<path d="M45.0721 9.81278C40.5427 3.86202 33.4811 0.153338 26.0542 0.00547764C20.2362 -0.110346 16.2162 1.63386 13.9417 3.03609C16.9848 1.27546 21.388 0.276876 25.2433 0.326003C35.1611 0.452365 45.8122 7.18955 47.3942 19.3345C49.2102 33.2759 39.4774 44.9115 25.7847 44.9466C10.7209 44.9852 1.55894 31.6786 3.95349 19.7267C4.07307 19.1299 4.01338 18.5494 4.21273 17.9853C4.32685 15.8838 5.1226 12.5897 6.83921 9.22397C5.10474 10.1192 2.89586 12.9517 1.80525 15.5755C0.232988 19.3579 -0.321104 23.8812 0.177686 28.1847C0.215235 28.5087 0.249246 28.8317 0.291711 29.1529C2.30928 40.989 12.6144 50 25.0255 50C38.8841 50 50.1187 38.7654 50.1187 24.9068C50.1187 19.2404 48.2398 14.0133 45.0721 9.81278ZM5.35539 11.9919L5.3553 11.992L5.35539 11.9919Z" fill="url(#paint4_radial)"/>
<path d="M47.3944 19.3345C47.5949 20.874 47.654 22.3879 47.5831 23.8635C48.4141 23.7405 49.2465 23.629 50.0806 23.5325C49.8032 18.3966 47.9821 13.6714 45.0722 9.81277C40.5428 3.86202 33.4813 0.153338 26.0543 0.00547764C20.2363 -0.110346 16.2164 1.63386 13.9419 3.03609C16.985 1.27546 21.3881 0.276876 25.2434 0.326003C35.1613 0.452365 45.8124 7.18955 47.3944 19.3345Z" fill="url(#paint5_linear)"/>
<path d="M48.0041 18.6412C46.5938 5.94894 35.2477 0.243815 25.2431 0.326072C21.3877 0.357772 16.9847 1.27553 13.9416 3.03615C12.5201 3.91252 11.7806 4.65473 11.7116 4.72563C11.7922 4.65883 12.0333 4.46084 12.4332 4.18704C12.4463 4.17789 12.4595 4.16894 12.4726 4.15984C12.484 4.15212 12.4959 4.1442 12.5075 4.13637C13.9581 3.1362 15.5953 2.40979 17.3265 1.90367C19.9706 1.1307 22.8333 0.871278 25.5857 0.94028C36.9004 1.59121 44.8852 10.9602 45.1632 20.9329C45.3932 29.1867 38.6213 35.769 30.8153 36.1503C25.1382 36.4276 19.7905 33.687 17.1769 28.2043C16.5955 26.9846 16.1691 25.7448 15.9467 24.2462C14.7085 15.9023 20.325 8.78685 25.4755 7.02525C22.6965 4.60387 15.7347 4.76811 10.553 8.57106C6.82144 11.3098 4.40074 15.4767 3.59875 20.448C2.98729 24.2383 3.56317 28.1798 5.06478 31.7001C6.59484 35.2871 9.08321 38.4494 12.2116 40.778C15.6087 43.3065 19.6993 44.7779 23.9156 45.0984C24.5374 45.1456 25.161 45.1687 25.7846 45.1687C42.3631 45.1687 49.5566 32.6144 48.0041 18.6412Z" fill="url(#paint6_radial)"/>
<path d="M48.0041 18.6412C46.5938 5.94894 35.2477 0.243815 25.2431 0.326072C21.3877 0.357772 16.9847 1.27553 13.9416 3.03615C12.5201 3.91252 11.7806 4.65473 11.7116 4.72563C11.7922 4.65883 12.0333 4.46084 12.4332 4.18704C12.4463 4.17789 12.4595 4.16894 12.4726 4.15984C12.484 4.15212 12.4959 4.1442 12.5075 4.13637C13.9581 3.1362 15.5953 2.40979 17.3265 1.90367C19.9706 1.1307 22.8333 0.871278 25.5857 0.94028C36.9004 1.59121 44.8852 10.9602 45.1632 20.9329C45.3932 29.1867 38.6213 35.769 30.8153 36.1503C25.1382 36.4276 19.7905 33.687 17.1769 28.2043C16.5955 26.9846 16.1691 25.7448 15.9467 24.2462C14.7085 15.9023 20.325 8.78685 25.4755 7.02525C22.6965 4.60387 15.7347 4.76811 10.553 8.57106C6.82144 11.3098 4.40074 15.4767 3.59875 20.448C2.98729 24.2383 3.56317 28.1798 5.06478 31.7001C6.59484 35.2871 9.08321 38.4494 12.2116 40.778C15.6087 43.3065 19.6993 44.7779 23.9156 45.0984C24.5374 45.1456 25.161 45.1687 25.7846 45.1687C42.3631 45.1687 49.5566 32.6144 48.0041 18.6412Z" fill="url(#paint7_radial)"/>
<path opacity="0.53" d="M48.0041 18.6412C46.5938 5.94894 35.2477 0.243815 25.2431 0.326072C21.3877 0.357772 16.9847 1.27553 13.9416 3.03615C12.5201 3.91252 11.7806 4.65473 11.7116 4.72563C11.7922 4.65883 12.0333 4.46084 12.4332 4.18704C12.4463 4.17789 12.4595 4.16894 12.4726 4.15984C12.484 4.15212 12.4959 4.1442 12.5075 4.13637C13.9581 3.1362 15.5953 2.40979 17.3265 1.90367C19.9706 1.1307 22.8333 0.871278 25.5857 0.94028C36.9004 1.59121 44.8852 10.9602 45.1632 20.9329C45.3932 29.1867 38.6213 35.769 30.8153 36.1503C25.1382 36.4276 19.7905 33.687 17.1769 28.2043C16.5955 26.9846 16.1691 25.7448 15.9467 24.2462C14.7085 15.9023 20.325 8.78685 25.4755 7.02525C22.6965 4.60387 15.7347 4.76811 10.553 8.57106C6.82144 11.3098 4.40074 15.4767 3.59875 20.448C2.98729 24.2383 3.56317 28.1798 5.06478 31.7001C6.59484 35.2871 9.08321 38.4494 12.2116 40.778C15.6087 43.3065 19.6993 44.7779 23.9156 45.0984C24.5374 45.1456 25.161 45.1687 25.7846 45.1687C42.3631 45.1687 49.5566 32.6144 48.0041 18.6412Z" fill="url(#paint8_radial)"/>
<path opacity="0.53" d="M48.0041 18.6412C46.5938 5.94894 35.2477 0.243815 25.2431 0.326072C21.3877 0.357772 16.9847 1.27553 13.9416 3.03615C12.5201 3.91252 11.7806 4.65473 11.7116 4.72563C11.7922 4.65883 12.0333 4.46084 12.4332 4.18704C12.4463 4.17789 12.4595 4.16894 12.4726 4.15984C12.484 4.15212 12.4959 4.1442 12.5075 4.13637C13.9581 3.1362 15.5953 2.40979 17.3265 1.90367C19.9706 1.1307 22.8333 0.871278 25.5857 0.94028C36.9004 1.59121 44.8852 10.9602 45.1632 20.9329C45.3932 29.1867 38.6213 35.769 30.8153 36.1503C25.1382 36.4276 19.7905 33.687 17.1769 28.2043C16.5955 26.9846 16.1691 25.7448 15.9467 24.2462C14.7085 15.9023 20.325 8.78685 25.4755 7.02525C22.6965 4.60387 15.7347 4.76811 10.553 8.57106C6.82144 11.3098 4.40074 15.4767 3.59875 20.448C2.98729 24.2383 3.56317 28.1798 5.06478 31.7001C6.59484 35.2871 9.08321 38.4494 12.2116 40.778C15.6087 43.3065 19.6993 44.7779 23.9156 45.0984C24.5374 45.1456 25.161 45.1687 25.7846 45.1687C42.3631 45.1687 49.5566 32.6144 48.0041 18.6412Z" fill="url(#paint9_radial)"/>
<path d="M30.8158 36.1503C41.5302 35.5003 46.1147 26.6528 46.402 20.3721C46.8507 10.5644 41.0174 -0.0125439 25.5862 0.940331C22.8338 0.871329 19.9711 1.13075 17.327 1.90372C15.0092 2.61082 13.3994 3.53531 12.508 4.13642C12.4965 4.14438 12.4846 4.1519 12.4731 4.15989C12.4593 4.1693 12.4472 4.17786 12.4337 4.18709C12.1937 4.35482 11.9591 4.53031 11.73 4.71342C12.159 4.42058 17.4806 1.28536 24.8741 2.25336C33.7314 3.41302 41.8322 10.2891 41.8322 19.3617C41.8322 26.3421 36.4247 31.6712 30.0933 31.2908C20.6864 30.7256 18.3176 21.1025 23.2088 16.9447C21.8893 16.6611 19.4095 17.2163 17.683 19.7915C16.1339 22.1022 16.2213 25.6726 17.1774 28.2043C19.791 33.687 25.1423 36.4946 30.8158 36.1503Z" fill="url(#paint10_radial)"/>
<path d="M45.072 9.81264C44.4004 8.93007 43.6668 8.10343 42.8907 7.32385C42.2681 6.66478 41.601 6.05753 40.9003 5.49512C41.304 5.84813 41.6926 6.21867 42.0584 6.61351C43.4154 8.07835 44.49 9.80887 45.1168 11.7034C46.4256 15.6594 46.3402 20.6099 43.8415 24.4981C40.8639 29.1316 36.0164 31.4189 30.7762 31.3074C30.5496 31.3084 30.3221 31.3043 30.0928 31.2906C20.6861 30.7253 18.3173 21.1023 23.2085 16.9444C21.8888 16.6609 19.4093 17.2161 17.6827 19.7912C16.1336 22.1019 16.221 25.6723 17.1771 28.204C16.5956 26.9844 16.1693 25.7446 15.9469 24.246C14.7087 15.9022 20.3252 8.78658 25.4757 7.025C22.6967 4.60368 15.7349 4.76792 10.5532 8.57085C7.53381 10.7869 5.37361 13.9385 4.23369 17.6942C4.40126 15.5869 5.19916 12.4395 6.83911 9.22382C5.10483 10.119 2.8958 12.9516 1.80538 15.5752C0.233114 19.3578 -0.321085 23.8811 0.177627 28.1847C0.215358 28.5085 0.249316 28.8315 0.291708 29.1528C2.3092 40.9889 12.6144 49.9998 25.0256 49.9998C38.8841 49.9998 50.1188 38.7652 50.1188 24.9066C50.1188 19.2402 48.2398 14.0132 45.072 9.81264Z" fill="url(#paint11_linear)"/>
<path d="M45.1172 11.7036C44.4903 9.80897 43.4157 8.07843 42.0587 6.61372C40.46 4.88804 38.469 3.57674 36.3613 2.55554C34.5682 1.68673 32.6955 1.00107 30.7603 0.574991C27.2939 -0.188174 23.6572 -0.174641 20.3824 0.514589C16.8222 1.26389 13.6914 2.80094 11.7114 4.72254C13.1961 3.82252 15.267 3.09259 16.7427 2.72063C23.5905 0.994493 31.131 2.86412 36.2721 7.78279C37.3057 8.77169 38.2325 9.87822 38.984 11.097C42.051 16.0713 41.7608 22.3248 39.3696 26.013C37.5933 28.7529 33.7893 31.3232 30.2401 31.2953C35.6851 31.5803 40.7628 29.2898 43.8419 24.4984C46.3406 20.61 46.4259 15.6595 45.1172 11.7036Z" fill="url(#paint12_linear)"/>
<path d="M45.1172 11.7036C44.4903 9.80897 43.4157 8.07843 42.0587 6.61372C40.46 4.88804 38.469 3.57674 36.3613 2.55554C34.5682 1.68673 32.6955 1.00107 30.7603 0.574991C27.2939 -0.188174 23.6572 -0.174641 20.3824 0.514589C16.8222 1.26389 13.6914 2.80094 11.7114 4.72254C13.1961 3.82252 15.267 3.09259 16.7427 2.72063C23.5905 0.994493 31.131 2.86412 36.2721 7.78279C37.3057 8.77169 38.2325 9.87822 38.984 11.097C42.051 16.0713 41.7608 22.3248 39.3696 26.013C37.5933 28.7529 33.7893 31.3232 30.2401 31.2953C35.6851 31.5803 40.7628 29.2898 43.8419 24.4984C46.3406 20.61 46.4259 15.6595 45.1172 11.7036Z" fill="url(#paint13_linear)"/>
</g>
<defs>
<radialGradient id="paint0_radial" cx="0" cy="0" r="1" gradientUnits="userSpaceOnUse" gradientTransform="translate(44.8133 9.47143) scale(56.8723)">
<stop stop-color="#FFF44F"/>
<stop offset="0.294852" stop-color="#FF980E"/>
<stop offset="0.431521" stop-color="#FF5D36"/>
<stop offset="0.530208" stop-color="#FF3750"/>
<stop offset="0.749319" stop-color="#F5156C"/>
<stop offset="0.76479" stop-color="#F1136E"/>
<stop offset="0.880096" stop-color="#DA057A"/>
<stop offset="0.952784" stop-color="#D2007F"/>
</radialGradient>
<radialGradient id="paint1_radial" cx="0" cy="0" r="1" gradientUnits="userSpaceOnUse" gradientTransform="translate(4.15323 11.8241) scale(33.6586)">
<stop stop-color="#B5007F"/>
<stop offset="1" stop-color="#F5156C" stop-opacity="0"/>
</radialGradient>
<radialGradient id="paint2_radial" cx="0" cy="0" r="1" gradientUnits="userSpaceOnUse" gradientTransform="translate(49.6749 6.23537) scale(66.7829)">
<stop stop-color="#FFDD00" stop-opacity="0.6"/>
<stop offset="0.0836672" stop-color="#FFD801" stop-opacity="0.524402"/>
<stop offset="0.182244" stop-color="#FECA05" stop-opacity="0.435332"/>
<stop offset="0.288366" stop-color="#FEB20C" stop-opacity="0.339445"/>
<stop offset="0.399791" stop-color="#FD9115" stop-opacity="0.238766"/>
<stop offset="0.515404" stop-color="#FB6621" stop-opacity="0.134303"/>
<stop offset="0.632872" stop-color="#F9332F" stop-opacity="0.028164"/>
<stop offset="0.664042" stop-color="#F92433" stop-opacity="0"/>
</radialGradient>
<radialGradient id="paint3_radial" cx="0" cy="0" r="1" gradientUnits="userSpaceOnUse" gradientTransform="translate(26.4908 27.8186) scale(86.1552)">
<stop offset="0.152849" stop-color="#960E18"/>
<stop offset="0.20613" stop-color="#CC2335" stop-opacity="0.554139"/>
<stop offset="0.249478" stop-color="#F13148" stop-opacity="0.191404"/>
<stop offset="0.272351" stop-color="#FF3750" stop-opacity="0"/>
</radialGradient>
<radialGradient id="paint4_radial" cx="0" cy="0" r="1" gradientUnits="userSpaceOnUse" gradientTransform="translate(19.9712 26.7353) scale(86.1552)">
<stop offset="0.112906" stop-color="#960E18"/>
<stop offset="0.189346" stop-color="#CC2335" stop-opacity="0.554139"/>
<stop offset="0.251535" stop-color="#F13148" stop-opacity="0.191404"/>
<stop offset="0.28435" stop-color="#FF3750" stop-opacity="0"/>
</radialGradient>
<linearGradient id="paint5_linear" x1="28.7124" y1="4.85943" x2="43.4537" y2="30.3922" gradientUnits="userSpaceOnUse">
<stop stop-color="#FFBC04"/>
<stop offset="0.259693" stop-color="#FFA202" stop-opacity="0.488604"/>
<stop offset="0.507812" stop-color="#FF8E00" stop-opacity="0"/>
</linearGradient>
<radialGradient id="paint6_radial" cx="0" cy="0" r="1" gradientUnits="userSpaceOnUse" gradientTransform="translate(43.6198 7.55001) scale(53.3813)">
<stop stop-color="#FF980E"/>
<stop offset="0.295012" stop-color="#FF7139"/>
<stop offset="0.484646" stop-color="#FF5B51"/>
<stop offset="0.626002" stop-color="#FF4F5E"/>
<stop offset="0.73652" stop-color="#FF4055"/>
<stop offset="0.842829" stop-color="#FF3750"/>
</radialGradient>
<radialGradient id="paint7_radial" cx="0" cy="0" r="1" gradientUnits="userSpaceOnUse" gradientTransform="translate(43.6198 7.55001) scale(53.3813)">
<stop offset="0.0840745" stop-color="#FFDE08"/>
<stop offset="0.208103" stop-color="#FFD609" stop-opacity="0.832008"/>
<stop offset="0.40327" stop-color="#FFBF0B" stop-opacity="0.567662"/>
<stop offset="0.643689" stop-color="#FF9B0F" stop-opacity="0.242024"/>
<stop offset="0.822376" stop-color="#FF7B12" stop-opacity="0"/>
</radialGradient>
<radialGradient id="paint8_radial" cx="0" cy="0" r="1" gradientUnits="userSpaceOnUse" gradientTransform="translate(31.2869 24.1566) rotate(75.6865) scale(26.1807 27.3221)">
<stop offset="0.363381" stop-color="#FF3750"/>
<stop offset="0.411136" stop-color="#FF444B" stop-opacity="0.789478"/>
<stop offset="0.590223" stop-color="#FF7139" stop-opacity="0"/>
</radialGradient>
<radialGradient id="paint9_radial" cx="0" cy="0" r="1" gradientUnits="userSpaceOnUse" gradientTransform="translate(26.7742 26.3737) rotate(75.6865) scale(26.1807 26.2036)">
<stop offset="0.215889" stop-color="#FF3750" stop-opacity="0.8"/>
<stop offset="0.270209" stop-color="#FF444B" stop-opacity="0.631583"/>
<stop offset="0.473917" stop-color="#FF7139" stop-opacity="0"/>
</radialGradient>
<radialGradient id="paint10_radial" cx="0" cy="0" r="1" gradientUnits="userSpaceOnUse" gradientTransform="translate(54.2738 1.52011) scale(90.2242)">
<stop offset="0.0535657" stop-color="#FFF44F"/>
<stop offset="0.457272" stop-color="#FF980E"/>
<stop offset="0.52105" stop-color="#FF8424"/>
<stop offset="0.587052" stop-color="#FF7634"/>
<stop offset="0.639343" stop-color="#FF7139"/>
</radialGradient>
<linearGradient id="paint11_linear" x1="36.9757" y1="4.4106" x2="11.3973" y2="48.7136" gradientUnits="userSpaceOnUse">
<stop stop-color="#FFF44F" stop-opacity="0.8"/>
<stop offset="0.75" stop-color="#FFF44F" stop-opacity="0"/>
</linearGradient>
<linearGradient id="paint12_linear" x1="28.8325" y1="31.4472" x2="28.8325" y2="0.31706" gradientUnits="userSpaceOnUse">
<stop stop-color="#3A8EE6"/>
<stop offset="0.235934" stop-color="#5C79F0"/>
<stop offset="0.629327" stop-color="#9059FF"/>
<stop offset="1" stop-color="#C139E6"/>
</linearGradient>
<linearGradient id="paint13_linear" x1="17.3768" y1="0.174344" x2="42.6365" y2="25.434" gradientUnits="userSpaceOnUse">
<stop offset="0.805429" stop-color="#9059FF" stop-opacity="0"/>
<stop offset="1" stop-color="#6E008B" stop-opacity="0.5"/>
</linearGradient>
<clipPath id="clip0">
<rect width="50" height="50" fill="white"/>
</clipPath>
</defs>
</svg>
