<svg id="Layer_1" data-name="Layer 1" xmlns="http://www.w3.org/2000/svg" viewBox="0 0 700 380">
  <title>CrossBrowser</title>
  <g>
    <path d="M491,28.75V297.19a5.84,5.84,0,0,1-5.83,5.84h-428a5.85,5.85,0,0,1-5.84-5.84V28.75a5.84,5.84,0,0,1,5.84-5.83h428A5.83,5.83,0,0,1,491,28.75Zm-32.71,236.3V60.9a5.84,5.84,0,0,0-5.84-5.84H89.3a5.83,5.83,0,0,0-5.83,5.84V265.05a5.83,5.83,0,0,0,5.83,5.83H452.45A5.84,5.84,0,0,0,458.29,265.05ZM249.93,281.22c-6.32,0-6.32,9.75,0,9.75H292.4c6.32,0,6.32-9.75,0-9.75Z" style="fill: #010101"/>
    <path d="M328.93,357.68a4.06,4.06,0,0,0,1.69.52c15,1.17,24.35,3.42,24.35,5.67,0,4-37.89,8-83.81,8-46.49,0-83.8-4-83.8-8,0-2.25,9.37-4.5,24.33-5.67a4,4,0,0,0,1.71-.54l30-17.9a3.92,3.92,0,0,0,1.91-3.37V316.71a3.92,3.92,0,0,1,3.93-3.92H292.5a3.92,3.92,0,0,1,3.92,3.92v19.66a3.92,3.92,0,0,0,1.94,3.38Z" style="fill: #010101"/>
    <rect x="62.76" y="32.65" width="416.8" height="258.33" style="fill: #fff"/>
  </g>
  <g>
    <path d="M530.23,158.79c5,.68,8.48,5.84,7.7,11.51L511.65,362.81c-.77,5.67-5.48,9.71-10.51,9L372.41,354.26c-5-.69-8.48-5.84-7.71-11.51L391,150.24c.78-5.67,5.48-9.72,10.51-9Zm-91.1,189.54a5.08,5.08,0,1,0,4.34,5.72A5.07,5.07,0,0,0,439.13,348.33Zm88.44-169.74L398.74,161,375.29,332.78l128.84,17.58Z" style="fill: #010101"/>
    <rect x="386.42" y="169" width="130.03" height="173.37" transform="translate(38.73 -58.71) rotate(7.77)" style="fill: #fff"/>
  </g>
  <g>
    <path d="M514.13,246.29A8.8,8.8,0,0,0,507.72,257l27.16,108.26a8.79,8.79,0,0,0,10.69,6.4L594,359.49a8.8,8.8,0,0,0,6.4-10.69L573.25,240.55a8.81,8.81,0,0,0-10.7-6.41Zm15.67,2.13,19.94-5a1.47,1.47,0,0,1,.71,2.85l-19.94,5a1.46,1.46,0,1,1-.71-2.84Zm-14.95,12.83L569,247.67l22.86,91.16-54.12,13.58Zm51.36,90.07a4.41,4.41,0,1,1-3.2,5.35A4.42,4.42,0,0,1,566.21,351.32Z" style="fill: #010101"/>
    <rect x="525.45" y="253.05" width="55.8" height="93.99" transform="translate(-56.37 143.65) rotate(-14.08)" style="fill: #fff"/>
    <circle cx="567.28" cy="355.59" r="4.41" style="fill: #fff"/>
  </g>
  <g id="Flat_copy" data-name="Flat copy">
    <g>
      <path d="M242.59,184.23a23.23,23.23,0,0,1-13-3.85,24.47,24.47,0,0,1-8.79-9.88l-19.22-33.69a47.78,47.78,0,0,0-5.85,23.43,45.13,45.13,0,0,0,11.44,30.67,45.78,45.78,0,0,0,28.46,15.65L249.23,183A21.82,21.82,0,0,1,242.59,184.23Z" style="fill: #c82027"/>
      <path d="M227.86,141.29c4.32-3.35,9.24-4.48,14.73-4.48h40.28a47.22,47.22,0,0,0-16.94-17.21,46.75,46.75,0,0,0-60.37,11.9l13.6,22.88A23.93,23.93,0,0,1,227.86,141.29Z" style="fill: #c82027"/>
      <path d="M285.93,142.67H258.7c4.76,4.76,7.87,10.86,7.87,17.57A23.94,23.94,0,0,1,262.36,174l-19.22,33.14a46.9,46.9,0,0,0,46.32-46.87A41.62,41.62,0,0,0,285.93,142.67Z" style="fill: #c82027"/>
      <circle cx="242.59" cy="160.24" r="17.57" style="fill: #c82027"/>
    </g>
  </g>
  <path d="M168.16,145.88q0,1.83-.29,7.17a80.27,80.27,0,0,1-1.26,10.47A60.57,60.57,0,0,1,163,175.05a53.51,53.51,0,0,1-6.38,11.53,44.75,44.75,0,0,1-25.27,16.19,42.75,42.75,0,0,1-9.1,1.36,1.37,1.37,0,0,0-.29,0l-.48.15-1.94.07c-1.94.05-3.87,0-5.81-.07q-24-1.94-36.59-23.64-5.8-10.29-6.58-19.58a40.4,40.4,0,0,0-.77,4.64q-.59-11,1.73-18a25.92,25.92,0,0,0-2.31,4.79l-.21.64a51.54,51.54,0,0,1,4.07-13.76,13.85,13.85,0,0,1,2.32-4.26v-.59a25.26,25.26,0,0,1,1.06-9.79q1.45-4.35,2.43-5.42c.64-.71,1.16-1.27,1.55-1.65.12,3.09,1.74,6.07,4.84,8.91a12.82,12.82,0,0,0,2.13.19l.6-.1.61-.1a24.41,24.41,0,0,1,8.85.4q3.1-3.89,9.49-5.23l3.68-.19a13.42,13.42,0,0,0-6.77,9.49c1.41,3,3.29,4.46,5.61,4.46h4.26c2.19,0,3.36.19,3.49.58v.39c.12.12.12.32,0,.58v.38a4.38,4.38,0,0,1-1.09,2.65,2.33,2.33,0,0,1-.28.26c-.13,0-.18,0-.18.1s0,.05-.06.07l0,0s0,0-.09,0-.58.52-1.74,1.16c-1.55,1-2.78,1.88-3.68,2.53q-2.52,1.54-2.52,2.13v.19h-.19a8.39,8.39,0,0,1,.77,2.91,7.53,7.53,0,0,1,.26,1.85.78.78,0,0,1,0,.16.36.36,0,0,1,0,.11v1.75a16.56,16.56,0,0,0-4.45-1.55c-1.82.77-2.85,1.61-3.1,2.52-.13.51-.27,1-.39,1.54q0,3.69,5.23,6.79a10.3,10.3,0,0,0,7.84,1.36c.84-.26,1.86-.65,3.09-1.17a23.33,23.33,0,0,1,2.62-1q5.82-1.54,9.49,2.72c.78.78.94,1.53.49,2.23a1.64,1.64,0,0,1-2,.68c-.38.12-.65.17-.77.1s-.43,0-.88.19-.76.33-1,.39a4.5,4.5,0,0,0-1,.58,8.55,8.55,0,0,1-.86.56l-.2.12a9.07,9.07,0,0,0-1.27.87,5.07,5.07,0,0,1-1.45.87,14.38,14.38,0,0,1-5.62,2.31q-.51.12-1,.21a24.1,24.1,0,0,1-3.07.37,13.75,13.75,0,0,1-4.2-.37,38.35,38.35,0,0,0,3.68,2.52q1.35.78,4.46,2.42a21.37,21.37,0,0,0,5.32,2.13,26.65,26.65,0,0,0,5.62.48,16,16,0,0,0,6.2-1.16,22.43,22.43,0,0,0,6-4,37.8,37.8,0,0,0,6.1-7.07,8.63,8.63,0,0,1,.77-1.17q.39,0-1,5.23c-.39,1.82-.52,2.72-.39,2.72q3.3-2.33,4.55-8.92a37.09,37.09,0,0,0,.29-12.8,5.88,5.88,0,0,1,3.29,3.69l.39.39a36.55,36.55,0,0,0,1.35-9.6,27.4,27.4,0,0,0-1.16-9.79q2.52.78,4.65,5a25.91,25.91,0,0,0-1.74-5.71,20.66,20.66,0,0,0-2.62-4.46,39.61,39.61,0,0,0-3.1-3.49,18.42,18.42,0,0,0-3.38-2.72c-1.17-.7-2.29-1.35-3.39-1.93a20.54,20.54,0,0,0-3.1-1.36c-1-.32-1.84-.58-2.62-.77s-1.35-.33-1.74-.4l-.43-.08s0,0,.05,0a36.12,36.12,0,0,1,9.87-1.36,5.19,5.19,0,0,0-2.24-1.72,25.41,25.41,0,0,0-3.58-1.36c-1.29-.39-2.55-.71-3.77-1s-2.68-.58-4.36-1H130l.35-.09a14.37,14.37,0,0,1,3.64-.35,46.21,46.21,0,0,1,13.05,2.77,18.47,18.47,0,0,1,7.75,5,25.77,25.77,0,0,1,4.35,5.33,25.88,25.88,0,0,1,1.27,2.9v-.77a8.09,8.09,0,0,0-.3-3,27.78,27.78,0,0,0-1.45-4.36,1.12,1.12,0,0,1,.58.29,9.34,9.34,0,0,1,1.45,2.13,40.42,40.42,0,0,1,2.42,5.33q2.13,5.24,3.68,18.8l1.17-7.36A15.26,15.26,0,0,1,168.16,145.88Z" style="fill: #c82027"/>
  <path d="M643,128.47a30.17,30.17,0,0,0-17.08-5.23A29.29,29.29,0,0,0,612,126.71a36.16,36.16,0,0,0-11.42,9.51,35.11,35.11,0,0,0-5.68,10.37,40.47,40.47,0,0,0-2.31,12.65v2a40.47,40.47,0,0,0,2.31,12.65,35,35,0,0,0,5.68,10.37A36.33,36.33,0,0,0,612,193.78a29.41,29.41,0,0,0,13.93,3.47A30.17,30.17,0,0,0,643,192a42.94,42.94,0,0,1-13.06,8,41.82,41.82,0,0,1-15.34,2.85c-.92,0-1.6,0-2,0a41.51,41.51,0,0,1-15.84-3.91,41.9,41.9,0,0,1-21.55-22.54,42.29,42.29,0,0,1,.19-32.68A41.87,41.87,0,0,1,598,121a41.67,41.67,0,0,1,16.55-3.38h.14A42.63,42.63,0,0,1,643,128.47Zm14.22,31.77a41.47,41.47,0,0,1-3.66,17.25,43.46,43.46,0,0,1-10.13,14.1,20,20,0,0,1-10.56,3,20.52,20.52,0,0,1-12.13-4q7.32-2.67,12.06-11.08a41.57,41.57,0,0,0,0-38.48q-4.71-8.43-12-11.14A20.73,20.73,0,0,1,632.86,126,20.42,20.42,0,0,1,643.61,129a42.34,42.34,0,0,1,13.6,31.2Z" style="fill: #c82027"/>
  <ellipse cx="365.55" cy="159.98" rx="41.36" ry="40.1" style="fill: #fff"/>
  <path id="path20" d="M403,110.65c-8.61-.05-20,5.56-27.06,9.71a56.14,56.14,0,0,0-8.75-.67c-12.27,0-22.16,3.61-29.69,10.41A39.64,39.64,0,0,0,324.19,160v.22c8.13-12.86,23.53-26.14,36.93-31.28-11,8.05-27.86,22.52-38.59,51.05-3.78,11.06-4.92,22.84,3.15,27.93s22.44-.91,34-8.49a62.55,62.55,0,0,0,8.85.61c21.38,0,36.38-11.8,41.74-29l-29.37,0c-1.24,6.08-5.36,9.32-11.81,9.32-8.09,0-13.65-4.43-14-14.68l55.76,0c.1-2.12-.16-3.61-.16-5.26,0-19.23-11.5-34.26-30.22-39,7.62-4.73,21.87-11.74,28.73-6.14,5.15,4.17,2.32,12.93,1.08,16.54-.21.93.87,1.08,1.08.2,2.58-6.49,3.35-15.2-.41-18.6A11.63,11.63,0,0,0,403,110.65ZM368.25,140c7.06,0,12.78,4.08,12.78,12.78H355c.15-8.91,6.54-12.78,13.24-12.78ZM330.9,182a40.15,40.15,0,0,0,9.06,9.63A41.23,41.23,0,0,0,357,199c-9,5.39-21.5,9.29-27.59,4.72C324.9,200.31,326.9,191,330.9,182Z" style="fill: #c82027"/>
  <circle cx="489.59" cy="159.98" r="43.28" style="fill: #fff"/>
  <path d="M493.33,160.09a3.41,3.41,0,0,1-.85,2.32,2.73,2.73,0,0,1-2.15,1,3.42,3.42,0,0,1-2.32-.86,2.71,2.71,0,0,1-1-2.14,3.41,3.41,0,0,1,.88-2.33,2.82,2.82,0,0,1,2.17-1,3.36,3.36,0,0,1,2.28.85A2.75,2.75,0,0,1,493.33,160.09Zm.78,3,18.09-30c-.31.28-1.47,1.35-3.49,3.23s-4.18,3.89-6.49,6-4.66,4.33-7.05,6.57-4.41,4.14-6.05,5.71a27.49,27.49,0,0,0-2.61,2.66l-18,30q.36-.36,3.46-3.21t6.51-6q3.42-3.18,7-6.57c2.42-2.25,4.43-4.17,6-5.73S494,163.26,494.11,163.09Zm33.44-2.85a36.1,36.1,0,0,1-5.37,19.18l-.88-.57c-.48-.31-.94-.59-1.37-.85a2.4,2.4,0,0,0-.85-.39.6.6,0,0,0-.68.67c0,.35,1,1.11,3.05,2.28a37.19,37.19,0,0,1-9.53,9.85,36.25,36.25,0,0,1-12.49,5.71l-.83-3.46c0-.35-.29-.52-.77-.52a.45.45,0,0,0-.41.28.69.69,0,0,0-.11.49l.83,3.52a37,37,0,0,1-26.78-4.65c0-.07.26-.43.67-1.06s.79-1.22,1.11-1.74a2.89,2.89,0,0,0,.5-1,.6.6,0,0,0-.68-.67c-.2,0-.5.25-.88.75a19.08,19.08,0,0,0-1.16,1.78c-.39.69-.63,1.09-.7,1.19a37,37,0,0,1-9.92-9.69,36.32,36.32,0,0,1-5.69-12.64l3.57-.77a.74.74,0,0,0,.52-.78.46.46,0,0,0-.29-.41.78.78,0,0,0-.54-.11l-3.52.78a37.85,37.85,0,0,1-.72-7.19,36.07,36.07,0,0,1,5.63-19.59c.07,0,.39.24,1,.62s1.09.71,1.55,1a2.63,2.63,0,0,0,.91.42c.44,0,.67-.21.67-.62,0-.21-.22-.48-.65-.81s-1-.69-1.68-1.11l-1-.62a37.66,37.66,0,0,1,9.77-9.77,36.41,36.41,0,0,1,12.61-5.53l.78,3.46c.07.35.32.52.77.52a.47.47,0,0,0,.42-.28.85.85,0,0,0,.1-.55l-.78-3.41a38.42,38.42,0,0,1,6.93-.67,36.34,36.34,0,0,1,19.59,5.64,13.59,13.59,0,0,0-2,3.36c0,.44.2.67.62.67s1.2-1.11,2.48-3.31a36.45,36.45,0,0,1,9.69,9.61,36.85,36.85,0,0,1,5.56,12.46l-2.9.62c-.34.07-.51.35-.51.83a.45.45,0,0,0,.28.41.69.69,0,0,0,.49.11l3-.67A38,38,0,0,1,527.55,160.24Zm4.4,0a40.32,40.32,0,0,0-3.29-16.07,40.64,40.64,0,0,0-22-22,41.06,41.06,0,0,0-32.16,0,40.64,40.64,0,0,0-22,22,41,41,0,0,0,0,32.15,40.73,40.73,0,0,0,22,22,41.06,41.06,0,0,0,32.16,0,40.73,40.73,0,0,0,22-22A40.33,40.33,0,0,0,532,160.24Zm5,0a45.23,45.23,0,0,1-3.67,18,45.44,45.44,0,0,1-24.66,24.66,45.93,45.93,0,0,1-36,0,45.52,45.52,0,0,1-24.66-24.66,45.93,45.93,0,0,1,0-36,45.61,45.61,0,0,1,24.66-24.66,45.93,45.93,0,0,1,36,0,45.52,45.52,0,0,1,24.66,24.66A45.23,45.23,0,0,1,536.91,160.24Z" style="fill: #c82027"/>
</svg>
