<svg width="50" height="50" viewBox="0 0 50 50" fill="none" xmlns="http://www.w3.org/2000/svg">
<path d="M25 50C38.8071 50 50 38.8071 50 25C50 11.1929 38.8071 0 25 0C11.1929 0 0 11.1929 0 25C0 38.8071 11.1929 50 25 50Z" fill="#1DA2F8"/>
<path d="M25.0002 3.70019C24.8318 3.70019 24.6953 3.56367 24.6953 3.39531V2.0002C24.6953 1.83184 24.8318 1.69531 25.0002 1.69531C25.1685 1.69531 25.3051 1.83184 25.3051 2.0002V3.39531C25.3051 3.56367 25.1685 3.70019 25.0002 3.70019Z" fill="#F2F2F2"/>
<path d="M25.0002 48.3047C24.8318 48.3047 24.6953 48.1682 24.6953 47.9998V46.6047C24.6953 46.4363 24.8318 46.2998 25.0002 46.2998C25.1685 46.2998 25.3051 46.4363 25.3051 46.6047V47.9998C25.3051 48.1682 25.1685 48.3047 25.0002 48.3047Z" fill="#F2F2F2"/>
<path d="M21.2479 4.02862C21.1026 4.02862 20.974 3.92452 20.9479 3.77657L20.7056 2.40264C20.6764 2.23682 20.7871 2.07862 20.9529 2.04952C21.1192 2.02061 21.277 2.13106 21.3061 2.29688L21.5484 3.67081C21.5776 3.83663 21.4668 3.99483 21.3011 4.02393C21.2831 4.02696 21.2655 4.02862 21.2479 4.02862Z" fill="#F2F2F2"/>
<path d="M28.9937 47.9555C28.8484 47.9555 28.7198 47.8514 28.6937 47.7034L28.4514 46.3295C28.4222 46.1637 28.533 46.0055 28.6987 45.9764C28.865 45.9471 29.0228 46.0578 29.0519 46.2237L29.2942 47.5976C29.3234 47.7634 29.2127 47.9216 29.047 47.9507C29.029 47.9539 29.0113 47.9555 28.9937 47.9555Z" fill="#F2F2F2"/>
<path d="M17.6109 5.00333C17.4864 5.00333 17.3695 4.92638 17.3245 4.80265L16.8472 3.49171C16.7898 3.33341 16.8714 3.15851 17.0296 3.10089C17.1873 3.04357 17.3628 3.12482 17.4202 3.28312L17.8973 4.59405C17.955 4.75236 17.8733 4.92726 17.7151 4.98488C17.6807 4.99738 17.6456 5.00333 17.6109 5.00333Z" fill="#F2F2F2"/>
<path d="M32.8665 46.9175C32.742 46.9175 32.6251 46.8405 32.5801 46.7168L32.1029 45.4059C32.0453 45.2476 32.127 45.0726 32.2852 45.015C32.4429 44.9575 32.6184 45.039 32.6758 45.1973L33.153 46.5082C33.2105 46.6665 33.1289 46.8414 32.9707 46.899C32.9363 46.9115 32.9012 46.9175 32.8665 46.9175Z" fill="#F2F2F2"/>
<path d="M14.1978 6.5946C14.0925 6.5946 13.99 6.53991 13.9335 6.44206L13.2359 5.23385C13.1518 5.08805 13.2016 4.90163 13.3475 4.81745C13.4932 4.73288 13.6798 4.78317 13.7641 4.92897L14.4616 6.13717C14.5457 6.28297 14.4959 6.4694 14.35 6.55358C14.3021 6.58141 14.2496 6.5946 14.1978 6.5946Z" fill="#F2F2F2"/>
<path d="M36.5003 45.2235C36.395 45.2235 36.2925 45.1688 36.236 45.071L35.5384 43.8628C35.4543 43.717 35.5041 43.5305 35.65 43.4464C35.7956 43.3618 35.9822 43.4121 36.0665 43.5579L36.7641 44.7661C36.8482 44.9119 36.7984 45.0983 36.6525 45.1825C36.6046 45.2103 36.5521 45.2235 36.5003 45.2235Z" fill="#F2F2F2"/>
<path d="M11.113 8.75458C11.026 8.75458 10.9395 8.71757 10.8793 8.64569L9.98249 7.57704C9.87418 7.44804 9.89108 7.25575 10.0202 7.14745C10.149 7.03935 10.3414 7.05605 10.4497 7.18505L11.3465 8.2537C11.4548 8.38271 11.4379 8.57499 11.3088 8.68329C11.2517 8.73124 11.1822 8.75458 11.113 8.75458Z" fill="#F2F2F2"/>
<path d="M39.7842 42.9239C39.6973 42.9239 39.6108 42.8869 39.5505 42.815L38.6539 41.7464C38.5456 41.6174 38.5625 41.4251 38.6916 41.3168C38.8204 41.2089 39.0128 41.2254 39.1211 41.3544L40.0176 42.4231C40.1259 42.5521 40.109 42.7443 39.9799 42.8526C39.923 42.9006 39.8534 42.9239 39.7842 42.9239Z" fill="#F2F2F2"/>
<path d="M8.44954 11.4177C8.38039 11.4177 8.31077 11.3944 8.25383 11.3464L7.18518 10.4496C7.05608 10.3413 7.03928 10.1491 7.14748 10.02C7.25578 9.89094 7.44817 9.87434 7.57698 9.98245L8.64563 10.8792C8.77473 10.9875 8.79153 11.1797 8.68332 11.3088C8.62297 11.3806 8.53645 11.4177 8.44954 11.4177Z" fill="#F2F2F2"/>
<path d="M42.6187 40.0886C42.5495 40.0886 42.4799 40.0653 42.4228 40.0173L41.3542 39.1205C41.2253 39.0122 41.2085 38.82 41.3166 38.6909C41.4249 38.5618 41.6171 38.5452 41.7462 38.6533L42.8148 39.5501C42.9437 39.6584 42.9605 39.8506 42.8524 39.9797C42.792 40.0516 42.7056 40.0886 42.6187 40.0886Z" fill="#F2F2F2"/>
<path d="M6.28944 14.5027C6.23778 14.5027 6.18534 14.4896 6.13729 14.4618L4.92909 13.7643C4.78319 13.6801 4.73339 13.4937 4.81747 13.3479C4.90175 13.2021 5.08768 13.1519 5.23397 13.2363L6.44218 13.9339C6.58808 14.0181 6.63788 14.2045 6.5538 14.3503C6.49735 14.448 6.39491 14.5027 6.28944 14.5027Z" fill="#F2F2F2"/>
<path d="M44.918 36.8046C44.8663 36.8046 44.8138 36.7914 44.7659 36.7637L43.5578 36.0661C43.4119 35.9819 43.3621 35.7955 43.4461 35.6497C43.5302 35.5039 43.7167 35.4535 43.8626 35.5382L45.0707 36.2358C45.2166 36.3199 45.2664 36.5064 45.1824 36.6522C45.1257 36.7499 45.0234 36.8046 44.918 36.8046Z" fill="#F2F2F2"/>
<path d="M4.69847 17.9156C4.6638 17.9156 4.62864 17.9097 4.59427 17.8972L3.28323 17.42C3.12493 17.3624 3.04339 17.1875 3.10101 17.0292C3.15843 16.8709 3.33382 16.7897 3.49163 16.847L4.80267 17.3241C4.96097 17.3817 5.04251 17.5567 4.98489 17.715C4.93987 17.8387 4.82298 17.9156 4.69847 17.9156Z" fill="#F2F2F2"/>
<path d="M46.6127 33.1715C46.578 33.1715 46.5429 33.1655 46.5083 33.153L45.1973 32.6759C45.0392 32.6182 44.9577 32.4433 45.0153 32.285C45.0727 32.1267 45.2476 32.0456 45.4061 32.1028L46.7171 32.58C46.8752 32.6376 46.9567 32.8125 46.8991 32.9708C46.8541 33.0947 46.737 33.1715 46.6127 33.1715Z" fill="#F2F2F2"/>
<path d="M3.72377 21.5532C3.70619 21.5532 3.68841 21.5517 3.67054 21.5486L2.29662 21.3063C2.1308 21.277 2.02015 21.1189 2.04935 20.9532C2.07855 20.7874 2.23597 20.6768 2.40257 20.7058L3.7765 20.9481C3.94232 20.9774 4.05296 21.1355 4.02377 21.3012C3.99769 21.4491 3.86908 21.5532 3.72377 21.5532Z" fill="#F2F2F2"/>
<path d="M47.6507 29.2989C47.6331 29.2989 47.6153 29.2973 47.5974 29.2942L46.2236 29.0519C46.0578 29.0226 45.9472 28.8645 45.9764 28.6988C46.0056 28.533 46.1628 28.4224 46.3296 28.4514L47.7035 28.6937C47.8693 28.723 47.98 28.8811 47.9508 29.0468C47.9247 29.1948 47.796 29.2989 47.6507 29.2989Z" fill="#F2F2F2"/>
<path d="M3.39521 25.3051H2.0002C1.83184 25.3051 1.69531 25.1685 1.69531 25.0002C1.69531 24.8318 1.83184 24.6953 2.0002 24.6953H3.39521C3.56357 24.6953 3.7001 24.8318 3.7001 25.0002C3.7001 25.1685 3.56357 25.3051 3.39521 25.3051Z" fill="#F2F2F2"/>
<path d="M47.9999 25.3051H46.6047C46.4363 25.3051 46.2998 25.1685 46.2998 25.0002C46.2998 24.8318 46.4363 24.6953 46.6047 24.6953H47.9999C48.1683 24.6953 48.3048 24.8318 48.3048 25.0002C48.3048 25.1685 48.1683 25.3051 47.9999 25.3051Z" fill="#F2F2F2"/>
<path d="M2.34935 29.2989C2.20404 29.2989 2.07543 29.1948 2.04935 29.0468C2.02015 28.8811 2.1308 28.7228 2.29662 28.6937L3.67054 28.4514C3.83695 28.4224 3.99466 28.5328 4.02377 28.6988C4.05296 28.8645 3.94232 29.0228 3.7765 29.0519L2.40257 29.2942C2.38461 29.2973 2.36683 29.2989 2.34935 29.2989Z" fill="#F2F2F2"/>
<path d="M46.2761 21.5533C46.1308 21.5533 46.0022 21.4492 45.9761 21.3012C45.9469 21.1355 46.0576 20.9772 46.2234 20.9481L47.5973 20.7058C47.7634 20.6768 47.9214 20.7872 47.9505 20.9532C47.9797 21.1189 47.8691 21.2772 47.7033 21.3063L46.3294 21.5486C46.3115 21.5517 46.2937 21.5533 46.2761 21.5533Z" fill="#F2F2F2"/>
<path d="M3.38693 33.171C3.26242 33.171 3.14553 33.094 3.10051 32.9703C3.04289 32.812 3.12453 32.6371 3.28273 32.5795L4.59377 32.1023C4.75148 32.045 4.92697 32.1264 4.9844 32.2846C5.04201 32.4429 4.96037 32.6178 4.80217 32.6754L3.49113 33.1525C3.45686 33.1651 3.4217 33.171 3.38693 33.171Z" fill="#F2F2F2"/>
<path d="M45.302 17.9156C45.1775 17.9156 45.0606 17.8387 45.0155 17.7149C44.9579 17.5566 45.0396 17.3817 45.1976 17.3241L46.5085 16.847C46.6671 16.7896 46.8418 16.871 46.8993 17.0292C46.957 17.1875 46.8753 17.3624 46.7173 17.42L45.4064 17.8972C45.3717 17.9097 45.3366 17.9156 45.302 17.9156Z" fill="#F2F2F2"/>
<path d="M5.08183 36.8047C4.97645 36.8047 4.87401 36.75 4.81747 36.6521C4.73339 36.5063 4.78319 36.3199 4.92909 36.2357L6.13729 35.5381C6.28329 35.4536 6.46942 35.5039 6.5538 35.6497C6.63788 35.7955 6.58808 35.9819 6.44218 36.0661L5.23397 36.7636C5.18593 36.7915 5.13358 36.8047 5.08183 36.8047Z" fill="#F2F2F2"/>
<path d="M43.7107 14.5023C43.6054 14.5023 43.5029 14.4477 43.4464 14.3498C43.3623 14.204 43.4121 14.0176 43.558 13.9334L44.7661 13.2358C44.9117 13.1514 45.0982 13.2017 45.1826 13.3474C45.2667 13.4932 45.2169 13.6796 45.071 13.7638L43.8629 14.4613C43.8149 14.4892 43.7623 14.5023 43.7107 14.5023Z" fill="#F2F2F2"/>
<path d="M7.38122 40.0891C7.2943 40.0891 7.20778 40.052 7.14752 39.9802C7.03922 39.8512 7.05612 39.6589 7.18522 39.5506L8.25387 38.6538C8.38268 38.5457 8.57506 38.5624 8.68336 38.6914C8.79166 38.8204 8.77477 39.0127 8.64567 39.121L7.57702 40.0178C7.51998 40.0657 7.45045 40.0891 7.38122 40.0891Z" fill="#F2F2F2"/>
<path d="M41.5504 11.4177C41.4635 11.4177 41.377 11.3807 41.3167 11.3088C41.2084 11.1798 41.2253 10.9876 41.3543 10.8792L42.4229 9.98241C42.552 9.87431 42.7443 9.89101 42.8525 10.02C42.9608 10.149 42.9439 10.3412 42.8149 10.4496L41.7463 11.3464C41.6891 11.3942 41.6197 11.4177 41.5504 11.4177Z" fill="#F2F2F2"/>
<path d="M10.2156 42.9235C10.1465 42.9235 10.0768 42.9002 10.0199 42.8522C9.89079 42.7439 9.874 42.5517 9.9822 42.4226L10.879 41.354C10.9874 41.225 11.1798 41.2083 11.3085 41.3164C11.4376 41.4247 11.4544 41.6169 11.3462 41.746L10.4494 42.8146C10.389 42.8865 10.3025 42.9235 10.2156 42.9235Z" fill="#F2F2F2"/>
<path d="M38.887 8.75458C38.8178 8.75458 38.7482 8.73124 38.6913 8.68329C38.5622 8.57499 38.5454 8.3828 38.6536 8.2537L39.5503 7.18505C39.6586 7.05605 39.851 7.03935 39.9798 7.14745C40.1089 7.25575 40.1257 7.44804 40.0175 7.57704L39.1209 8.64569C39.0605 8.71757 38.974 8.75458 38.887 8.75458Z" fill="#F2F2F2"/>
<path d="M13.4997 45.2234C13.448 45.2234 13.3956 45.2102 13.3475 45.1825C13.2016 45.0983 13.1518 44.9119 13.2359 44.7661L13.9335 43.5579C14.0178 43.4121 14.2037 43.3618 14.35 43.4464C14.4959 43.5305 14.5457 43.717 14.4616 43.8628L13.7641 45.071C13.7075 45.1687 13.6051 45.2234 13.4997 45.2234Z" fill="#F2F2F2"/>
<path d="M35.8022 6.59454C35.7505 6.59454 35.6981 6.58136 35.65 6.55362C35.5041 6.46944 35.4543 6.28302 35.5384 6.13722L36.236 4.92901C36.3203 4.78321 36.5062 4.73282 36.6525 4.81749C36.7984 4.90167 36.8482 5.0881 36.7641 5.2339L36.0665 6.4421C36.01 6.53985 35.9076 6.59454 35.8022 6.59454Z" fill="#F2F2F2"/>
<path d="M17.1336 46.9175C17.0989 46.9175 17.0637 46.9116 17.0294 46.8991C16.8711 46.8414 16.7895 46.6665 16.8471 46.5082L17.3243 45.1973C17.3819 45.0389 17.5569 44.9575 17.7149 45.0151C17.8732 45.0727 17.9548 45.2476 17.8971 45.4059L17.42 46.7168C17.375 46.8407 17.258 46.9175 17.1336 46.9175Z" fill="#F2F2F2"/>
<path d="M32.3894 5.00285C32.3547 5.00285 32.3196 4.9969 32.2852 4.9844C32.1269 4.92678 32.0453 4.75188 32.103 4.59358L32.5801 3.28264C32.6375 3.12424 32.8129 3.04309 32.9707 3.10041C33.129 3.15803 33.2106 3.33293 33.1531 3.49123L32.6758 4.80217C32.631 4.926 32.5139 5.00285 32.3894 5.00285Z" fill="#F2F2F2"/>
<path d="M21.0063 47.9554C20.9888 47.9554 20.971 47.9538 20.9531 47.9507C20.7874 47.9214 20.6766 47.7634 20.7058 47.5975L20.9481 46.2237C20.9773 46.0579 21.1347 45.9472 21.3013 45.9764C21.4671 46.0056 21.5778 46.1637 21.5486 46.3295L21.3063 47.7034C21.2802 47.8512 21.1516 47.9554 21.0063 47.9554Z" fill="#F2F2F2"/>
<path d="M28.7519 4.02857C28.7344 4.02857 28.7166 4.027 28.6987 4.02388C28.533 3.99458 28.4222 3.83657 28.4514 3.67075L28.6937 2.29683C28.7229 2.1311 28.8804 2.02075 29.047 2.04946C29.2127 2.07876 29.3234 2.23677 29.2942 2.40259L29.0519 3.77652C29.0258 3.92437 28.8973 4.02857 28.7519 4.02857Z" fill="#F2F2F2"/>
<path d="M23.3138 6.03711C23.1573 6.03711 23.0242 5.91749 23.0105 5.75889L22.6916 2.11426C22.677 1.94649 22.801 1.79864 22.9688 1.78399C23.1367 1.76866 23.2844 1.89346 23.2989 2.06114L23.6178 5.70577C23.6324 5.87354 23.5084 6.02139 23.3406 6.03604C23.3316 6.03672 23.3226 6.03711 23.3138 6.03711Z" fill="#F2F2F2"/>
<path d="M27.0042 48.2173C26.8478 48.2173 26.7147 48.0977 26.7009 47.9391L26.382 44.2944C26.3674 44.1267 26.4914 43.9788 26.6592 43.9642C26.8281 43.9488 26.9746 44.0736 26.9894 44.2413L27.3082 47.8859C27.3229 48.0537 27.1988 48.2016 27.0311 48.2162C27.0221 48.2168 27.013 48.2173 27.0042 48.2173Z" fill="#F2F2F2"/>
<path d="M19.9941 6.62297C19.8594 6.62297 19.7363 6.53312 19.6999 6.39699L18.7529 2.8631C18.7093 2.70041 18.8057 2.53332 18.9684 2.48976C19.131 2.44533 19.2983 2.54269 19.3418 2.70529L20.2887 6.23918C20.3323 6.40187 20.2359 6.56896 20.0732 6.61252C20.0468 6.61964 20.0202 6.62297 19.9941 6.62297Z" fill="#F2F2F2"/>
<path d="M30.9525 47.5208C30.8178 47.5208 30.6947 47.431 30.6583 47.2948L29.7114 43.761C29.6678 43.5983 29.7642 43.4312 29.9269 43.3876C30.0901 43.3435 30.2566 43.4405 30.3003 43.6031L31.2471 47.137C31.2907 47.2997 31.1943 47.4668 31.0316 47.5104C31.0049 47.5175 30.9786 47.5208 30.9525 47.5208Z" fill="#F2F2F2"/>
<path d="M16.8264 7.77569C16.7115 7.77569 16.6016 7.71045 16.5499 7.59961L15.0037 4.28379C14.9326 4.13125 14.9985 3.94981 15.1511 3.87871C15.3035 3.80762 15.4853 3.87354 15.5563 4.02617L17.1024 7.34199C17.1735 7.49453 17.1076 7.67598 16.9551 7.74707C16.9135 7.76651 16.8695 7.77569 16.8264 7.77569Z" fill="#F2F2F2"/>
<path d="M34.7203 46.1497C34.6055 46.1497 34.4955 46.0845 34.4438 45.9736L32.8978 42.6578C32.8267 42.5053 32.8926 42.3238 33.0451 42.2527C33.1977 42.1816 33.3793 42.2476 33.4503 42.4002L34.9964 45.716C35.0675 45.8685 35.0016 46.05 34.849 46.1211C34.8073 46.1405 34.7635 46.1497 34.7203 46.1497Z" fill="#F2F2F2"/>
<path d="M13.9066 9.46126C13.8105 9.46126 13.7159 9.41594 13.6565 9.33128L11.558 6.3343C11.4616 6.19631 11.495 6.00628 11.6329 5.90969C11.7714 5.81292 11.9611 5.8468 12.0576 5.9846L14.1561 8.98157C14.2525 9.11956 14.2191 9.3096 14.0812 9.40618C14.0279 9.44338 13.9669 9.46126 13.9066 9.46126Z" fill="#F2F2F2"/>
<path d="M38.1927 44.1448C38.0966 44.1448 38.0019 44.0995 37.9426 44.0149L35.8441 41.0179C35.7477 40.8799 35.7811 40.6899 35.919 40.5933C36.0575 40.4965 36.2472 40.5304 36.3437 40.6682L38.4421 43.6652C38.5385 43.8032 38.5051 43.9932 38.3672 44.0898C38.3139 44.127 38.2528 44.1448 38.1927 44.1448Z" fill="#F2F2F2"/>
<path d="M11.3237 11.6284C11.2458 11.6284 11.1677 11.5987 11.1082 11.5392L8.52117 8.95208C8.40212 8.83313 8.40212 8.63997 8.52117 8.52092C8.64021 8.40188 8.83318 8.40188 8.95232 8.52092L11.5393 11.1079C11.6584 11.2269 11.6584 11.42 11.5393 11.5391C11.4798 11.5986 11.4018 11.6284 11.3237 11.6284Z" fill="#F2F2F2"/>
<path d="M41.2634 41.5683C41.1855 41.5683 41.1074 41.5385 41.0479 41.479L38.4609 38.892C38.3418 38.7731 38.3418 38.5799 38.4609 38.4609C38.5799 38.3418 38.7729 38.3418 38.892 38.4609L41.479 41.0479C41.5981 41.1668 41.5981 41.36 41.479 41.479C41.4195 41.5385 41.3414 41.5683 41.2634 41.5683Z" fill="#F2F2F2"/>
<path d="M9.15618 14.2112C9.09583 14.2112 9.03489 14.1934 8.98157 14.156L5.9847 12.0576C5.84681 11.9611 5.81341 11.771 5.90979 11.633C6.00657 11.495 6.19632 11.4615 6.3345 11.5581L9.33138 13.6564C9.46927 13.7529 9.50267 13.9431 9.40628 14.081C9.3469 14.1658 9.25228 14.2112 9.15618 14.2112Z" fill="#F2F2F2"/>
<path d="M43.8401 38.4972C43.7798 38.4972 43.7188 38.4793 43.6655 38.442L40.6685 36.3437C40.5306 36.2472 40.4972 36.0571 40.5936 35.9191C40.6904 35.7813 40.8801 35.7476 41.0183 35.8442L44.0153 37.9426C44.1532 38.0391 44.1866 38.2292 44.0902 38.3672C44.0308 38.4518 43.9362 38.4972 43.8401 38.4972Z" fill="#F2F2F2"/>
<path d="M7.47061 17.131C7.42744 17.131 7.38369 17.1218 7.34199 17.1023L4.02627 15.5562C3.87353 15.4851 3.80762 15.3037 3.87871 15.1511C3.9498 14.9986 4.13135 14.9327 4.28379 15.0037L7.59961 16.5497C7.75234 16.6208 7.81826 16.8023 7.74717 16.9548C7.69541 17.0658 7.58545 17.131 7.47061 17.131Z" fill="#F2F2F2"/>
<path d="M45.8447 35.0251C45.8015 35.0251 45.7577 35.0159 45.7159 34.9964L42.4001 33.4503C42.2476 33.3792 42.1816 33.1977 42.2528 33.0452C42.324 32.8927 42.5055 32.8266 42.658 32.8977L45.9737 34.4438C46.1262 34.5149 46.1922 34.6964 46.121 34.8489C46.0695 34.9599 45.9594 35.0251 45.8447 35.0251Z" fill="#F2F2F2"/>
<path d="M6.31812 20.2991C6.29214 20.2991 6.26558 20.2958 6.23902 20.2886L2.70503 19.3417C2.54224 19.2981 2.44585 19.1309 2.48951 18.9683C2.53296 18.8057 2.69986 18.7088 2.86285 18.7528L6.39683 19.6997C6.55962 19.7432 6.65601 19.9104 6.61236 20.073C6.57584 20.2092 6.45259 20.2991 6.31812 20.2991Z" fill="#F2F2F2"/>
<path d="M47.2163 31.2576C47.1903 31.2576 47.1638 31.2543 47.1372 31.2471L43.6032 30.3001C43.4404 30.2566 43.344 30.0894 43.3877 29.9268C43.4312 29.7642 43.5981 29.6674 43.761 29.7112L47.295 30.6582C47.4578 30.7018 47.5542 30.869 47.5105 31.0316C47.4742 31.1679 47.3509 31.2576 47.2163 31.2576Z" fill="#F2F2F2"/>
<path d="M5.73252 23.6192C5.72354 23.6192 5.71465 23.6188 5.70557 23.6179L2.06094 23.2991C1.89326 23.2845 1.76924 23.1367 1.78389 22.9688C1.79844 22.8011 1.94678 22.6765 2.11416 22.6917L5.75879 23.0105C5.92647 23.0252 6.05049 23.1729 6.03584 23.3408C6.02217 23.4996 5.88907 23.6192 5.73252 23.6192Z" fill="#F2F2F2"/>
<path d="M47.9128 27.3096C47.904 27.3096 47.8949 27.3092 47.886 27.3083L44.2412 26.9895C44.0735 26.9748 43.9493 26.8271 43.9641 26.6592C43.9787 26.4915 44.1253 26.3673 44.2943 26.382L47.939 26.7009C48.1068 26.7155 48.2309 26.8633 48.2161 27.0312C48.2023 27.1901 48.0692 27.3096 47.9128 27.3096Z" fill="#F2F2F2"/>
<path d="M2.08745 27.3094C1.93101 27.3094 1.7979 27.1897 1.78413 27.0311C1.76949 26.8634 1.89351 26.7155 2.06118 26.7009L5.70581 26.382C5.87622 26.3674 6.02154 26.4916 6.03609 26.6592C6.05074 26.827 5.92671 26.9748 5.75904 26.9894L2.11441 27.3083C2.10533 27.309 2.09624 27.3094 2.08745 27.3094Z" fill="#F2F2F2"/>
<path d="M44.2674 23.6191C44.1109 23.6191 43.9778 23.4995 43.9641 23.3409C43.9494 23.1731 44.0734 23.0253 44.2412 23.0106L47.8859 22.6918C48.0547 22.676 48.2014 22.8013 48.2161 22.9689C48.2308 23.1367 48.1067 23.2845 47.939 23.2992L44.2942 23.618C44.2852 23.6187 44.2761 23.6191 44.2674 23.6191Z" fill="#F2F2F2"/>
<path d="M2.7837 31.2577C2.64904 31.2577 2.52589 31.1679 2.48947 31.0317C2.44591 30.869 2.5423 30.7019 2.70499 30.6583L6.23898 29.7114C6.40119 29.6671 6.56867 29.7643 6.61232 29.9269C6.65587 30.0896 6.55949 30.2567 6.39679 30.3002L2.86281 31.2472C2.83644 31.2543 2.80968 31.2577 2.7837 31.2577Z" fill="#F2F2F2"/>
<path d="M43.6821 20.299C43.5475 20.299 43.4243 20.2092 43.3879 20.073C43.3443 19.9103 43.4407 19.7432 43.6034 19.6997L47.1374 18.7528C47.2999 18.7088 47.4671 18.8057 47.5108 18.9683C47.5543 19.131 47.4579 19.2981 47.2952 19.3417L43.7612 20.2886C43.7348 20.2956 43.7082 20.299 43.6821 20.299Z" fill="#F2F2F2"/>
<path d="M4.15518 35.0251C4.04033 35.0251 3.93037 34.9599 3.87871 34.8489C3.80762 34.6964 3.87354 34.5149 4.02627 34.4438L7.34209 32.8977C7.49394 32.8266 7.67598 32.8927 7.74717 33.0452C7.81836 33.1977 7.75234 33.3792 7.59961 33.4503L4.28379 34.9964C4.24229 35.0158 4.19834 35.0251 4.15518 35.0251Z" fill="#F2F2F2"/>
<path d="M42.5292 17.1314C42.4144 17.1314 42.3044 17.0662 42.2527 16.9553C42.1816 16.8028 42.2476 16.6213 42.4001 16.5502L45.7158 15.0041C45.8684 14.9331 46.0499 14.9991 46.121 15.1516C46.1921 15.3041 46.1262 15.4856 45.9736 15.5567L42.6579 17.1028C42.6163 17.1222 42.5725 17.1314 42.5292 17.1314Z" fill="#F2F2F2"/>
<path d="M6.15989 38.4973C6.0638 38.4973 5.96917 38.452 5.90979 38.3673C5.81341 38.2293 5.84681 38.0393 5.9847 37.9427L8.98157 35.8443C9.12005 35.7475 9.30979 35.7814 9.40628 35.9192C9.50267 36.0572 9.46927 36.2472 9.33138 36.3438L6.3345 38.4421C6.28128 38.4793 6.22024 38.4973 6.15989 38.4973Z" fill="#F2F2F2"/>
<path d="M40.8437 14.2111C40.7476 14.2111 40.653 14.1657 40.5936 14.0811C40.4972 13.9431 40.5306 13.7531 40.6685 13.6565L43.6655 11.5581C43.804 11.4614 43.9935 11.4952 44.0902 11.633C44.1866 11.771 44.1532 11.9611 44.0153 12.0576L41.0183 14.156C40.9651 14.1931 40.9041 14.2111 40.8437 14.2111Z" fill="#F2F2F2"/>
<path d="M8.73669 41.5683C8.65876 41.5683 8.58064 41.5385 8.52117 41.479C8.40212 41.3601 8.40212 41.1669 8.52117 41.0479L11.1082 38.4609C11.2272 38.3418 11.4202 38.3418 11.5393 38.4609C11.6584 38.5798 11.6584 38.773 11.5393 38.892L8.95232 41.479C8.89275 41.5385 8.81462 41.5683 8.73669 41.5683Z" fill="#F2F2F2"/>
<path d="M38.6766 11.6288C38.5987 11.6288 38.5206 11.599 38.4611 11.5396C38.3421 11.4206 38.3421 11.2275 38.4611 11.1084L41.0481 8.52141C41.1672 8.40237 41.3601 8.40237 41.4793 8.52141C41.5983 8.64036 41.5983 8.83352 41.4793 8.95256L38.8923 11.5396C38.8325 11.5989 38.7546 11.6288 38.6766 11.6288Z" fill="#F2F2F2"/>
<path d="M11.8075 44.1453C11.7471 44.1453 11.6862 44.1275 11.6329 44.0902C11.495 43.9937 11.4616 43.8036 11.558 43.6656L13.6565 40.6686C13.7533 40.5308 13.943 40.4971 14.0812 40.5937C14.2191 40.6902 14.2525 40.8803 14.1561 41.0183L12.0576 44.0153C11.9981 44.1 11.9037 44.1453 11.8075 44.1453Z" fill="#F2F2F2"/>
<path d="M36.0934 9.46132C36.033 9.46132 35.9721 9.44345 35.9188 9.40615C35.7809 9.30966 35.7475 9.11953 35.8439 8.98154L37.9423 5.98456C38.039 5.84658 38.229 5.81308 38.367 5.90966C38.5049 6.00615 38.5383 6.19628 38.4419 6.33427L36.3436 9.33124C36.2841 9.41601 36.1896 9.46132 36.0934 9.46132Z" fill="#F2F2F2"/>
<path d="M15.2799 46.1498C15.2368 46.1498 15.1929 46.1406 15.1511 46.1211C14.9986 46.05 14.9326 45.8685 15.0038 45.716L16.5499 42.4002C16.6209 42.2476 16.8027 42.1816 16.9551 42.2527C17.1077 42.3238 17.1737 42.5053 17.1025 42.6578L15.5563 45.9736C15.5047 46.0846 15.3948 46.1498 15.2799 46.1498Z" fill="#F2F2F2"/>
<path d="M33.174 7.77578C33.1308 7.77578 33.087 7.7666 33.0452 7.74707C32.8926 7.67598 32.8266 7.49453 32.8978 7.34199L34.4439 4.02617C34.5149 3.87354 34.6966 3.80762 34.8491 3.87871C35.0016 3.94981 35.0676 4.13125 34.9964 4.28379L33.4503 7.59961C33.3986 7.71065 33.2886 7.77578 33.174 7.77578Z" fill="#F2F2F2"/>
<path d="M19.0473 47.5209C19.0213 47.5209 18.9947 47.5175 18.9682 47.5103C18.8054 47.4668 18.709 47.2996 18.7527 47.137L19.6997 43.6031C19.7432 43.4407 19.9106 43.3435 20.073 43.3876C20.2358 43.4311 20.3322 43.5983 20.2885 43.7609L19.3416 47.2948C19.3051 47.4311 19.1819 47.5209 19.0473 47.5209Z" fill="#F2F2F2"/>
<path d="M30.0063 6.62303C29.9803 6.62303 29.9538 6.61971 29.9272 6.61248C29.7644 6.56893 29.668 6.40174 29.7117 6.23914L30.6586 2.70526C30.7021 2.54266 30.8686 2.44539 31.0319 2.48973C31.1947 2.53328 31.2911 2.70047 31.2474 2.86307L30.3005 6.39695C30.2641 6.53309 30.1409 6.62303 30.0063 6.62303Z" fill="#F2F2F2"/>
<path d="M22.9959 48.2175C22.9871 48.2175 22.978 48.2171 22.969 48.2162C22.8012 48.2016 22.6771 48.0537 22.6919 47.8859L23.0107 44.2413C23.0253 44.0736 23.1731 43.9488 23.3409 43.9642C23.5087 43.9788 23.6328 44.1266 23.618 44.2944L23.2992 47.9391C23.2853 48.0979 23.1523 48.2175 22.9959 48.2175Z" fill="#F2F2F2"/>
<path d="M26.6858 6.03732C26.677 6.03732 26.6679 6.03693 26.659 6.03605C26.4912 6.02141 26.3671 5.87365 26.3818 5.70578L26.7007 2.06115C26.7152 1.89348 26.8615 1.76857 27.0308 1.784C27.1986 1.79865 27.3227 1.94641 27.308 2.11428L26.9891 5.75891C26.9754 5.91779 26.8424 6.03732 26.6858 6.03732Z" fill="#F2F2F2"/>
<path d="M28.0205 28.0205L41.4921 8.5083L21.9799 21.9799L8.5083 41.4921L28.0205 28.0205Z" fill="#F2F2F2"/>
<path d="M28.0203 28.02L41.4918 8.50781L8.50806 41.4916L28.0203 28.02Z" fill="#CCCCCC"/>
<path d="M28.0204 28.02L41.4919 8.50781L21.9797 21.9794L28.0204 28.02Z" fill="#FF525D"/>
<path d="M28.0203 28.02L41.4919 8.50781L25 24.9997L28.0203 28.02Z" fill="#EF4152"/>
</svg>
