<svg width="50" height="50" viewBox="0 0 50 50" fill="none" xmlns="http://www.w3.org/2000/svg">
<g clip-path="url(#clip0)">
<path d="M45.127 37.2148C44.4603 37.5635 43.7728 37.8707 43.0684 38.1348C40.8261 38.9738 38.4508 39.4012 36.0566 39.3965C26.8145 39.3965 18.7637 33.0391 18.7637 24.8809C18.7755 23.7866 19.0791 22.7154 19.6433 21.7778C20.2074 20.8401 21.0115 20.07 21.9727 19.5469C13.6133 19.8984 11.4648 28.6094 11.4648 33.7129C11.4648 48.1426 24.7637 49.6055 27.6289 49.6055C29.1738 49.6055 31.5039 49.1563 32.9023 48.7148L33.1582 48.6289C38.5395 46.7685 43.1272 43.1315 46.166 38.3164C46.2591 38.1698 46.3006 37.9963 46.2841 37.8234C46.2676 37.6505 46.1939 37.488 46.0747 37.3617C45.9555 37.2353 45.7977 37.1523 45.626 37.1257C45.4544 37.0991 45.2788 37.1305 45.127 37.2148Z" fill="url(#paint0_linear)"/>
<path opacity="0.35" d="M45.127 37.2148C44.4603 37.5635 43.7728 37.8707 43.0684 38.1348C40.8261 38.9738 38.4508 39.4012 36.0566 39.3965C26.8145 39.3965 18.7637 33.0391 18.7637 24.8809C18.7755 23.7866 19.0791 22.7154 19.6433 21.7778C20.2074 20.8401 21.0115 20.07 21.9727 19.5469C13.6133 19.8984 11.4648 28.6094 11.4648 33.7129C11.4648 48.1426 24.7637 49.6055 27.6289 49.6055C29.1738 49.6055 31.5039 49.1563 32.9023 48.7148L33.1582 48.6289C38.5395 46.7685 43.1272 43.1315 46.166 38.3164C46.2591 38.1698 46.3006 37.9963 46.2841 37.8234C46.2676 37.6505 46.1939 37.488 46.0747 37.3617C45.9555 37.2353 45.7977 37.1523 45.626 37.1257C45.4544 37.0991 45.2788 37.1305 45.127 37.2148Z" fill="url(#paint1_radial)"/>
<path d="M20.6465 47.1524C18.9045 46.0711 17.3947 44.6543 16.2051 42.9844C14.8492 41.1267 13.9162 38.9949 13.4714 36.7385C13.0267 34.4821 13.081 32.1556 13.6306 29.9224C14.1801 27.6892 15.2116 25.6033 16.6527 23.8109C18.0938 22.0185 19.9096 20.5632 21.9727 19.5469C22.5821 19.2598 23.6231 18.7402 25.0079 18.7656C25.9835 18.7727 26.9442 19.0057 27.8147 19.4462C28.6852 19.8867 29.4419 20.5228 30.0254 21.3047C30.8142 22.3578 31.249 23.6337 31.2676 24.9492C31.2676 24.9082 36.045 9.40234 15.6426 9.40234C7.0684 9.40234 0.0176211 17.5391 0.0176211 24.6777C-0.0161993 28.454 0.791788 32.1904 2.38286 35.6152C4.9831 41.1632 9.53023 45.5632 15.1608 47.9795C20.7913 50.3958 27.1131 50.6603 32.9258 48.7227C30.8906 49.3644 28.7404 49.557 26.6235 49.2872C24.5066 49.0175 22.4734 48.2918 20.6641 47.1602L20.6465 47.1524Z" fill="url(#paint2_linear)"/>
<path opacity="0.41" d="M20.6465 47.1524C18.9045 46.0711 17.3947 44.6543 16.2051 42.9844C14.8492 41.1267 13.9162 38.9949 13.4714 36.7385C13.0267 34.4821 13.081 32.1556 13.6306 29.9224C14.1801 27.6892 15.2116 25.6033 16.6527 23.8109C18.0938 22.0185 19.9096 20.5632 21.9727 19.5469C22.5821 19.2598 23.6231 18.7402 25.0079 18.7656C25.9835 18.7727 26.9442 19.0057 27.8147 19.4462C28.6852 19.8867 29.4419 20.5228 30.0254 21.3047C30.8142 22.3578 31.249 23.6337 31.2676 24.9492C31.2676 24.9082 36.045 9.40234 15.6426 9.40234C7.0684 9.40234 0.0176211 17.5391 0.0176211 24.6777C-0.0161993 28.454 0.791788 32.1904 2.38286 35.6152C4.9831 41.1632 9.53023 45.5632 15.1608 47.9795C20.7913 50.3958 27.1131 50.6603 32.9258 48.7227C30.8906 49.3644 28.7404 49.557 26.6235 49.2872C24.5066 49.0175 22.4734 48.2918 20.6641 47.1602L20.6465 47.1524Z" fill="url(#paint3_radial)"/>
<path d="M29.748 29.0742C29.5898 29.2793 29.1035 29.5625 29.1035 30.1797C29.1035 30.6895 29.4355 31.1797 30.0254 31.5918C32.834 33.5449 38.1289 33.2871 38.1426 33.2871C40.2237 33.2821 42.2653 32.7189 44.0547 31.6562C45.8598 30.6023 47.3579 29.0946 48.4005 27.2829C49.443 25.4712 49.9938 23.4184 49.998 21.3281C50.0488 16.9512 48.4355 14.041 47.7832 12.752C43.6445 4.65625 34.7109 1.22391e-07 24.9961 1.22391e-07C18.4261 -0.000649526 12.12 2.58496 7.44157 7.1976C2.76314 11.8102 0.0884836 18.0791 -0.00390625 24.6484C0.0898438 17.5117 7.18359 11.748 15.6211 11.748C16.3047 11.748 20.2031 11.8145 23.8242 13.7148C27.0156 15.3906 28.6875 17.4141 29.8496 19.4199C31.0566 21.5039 31.2715 24.1367 31.2715 25.1855C31.2715 26.2344 30.7363 27.7891 29.748 29.0742Z" fill="url(#paint4_radial)"/>
<path d="M29.748 29.0742C29.5898 29.2793 29.1035 29.5625 29.1035 30.1797C29.1035 30.6895 29.4355 31.1797 30.0254 31.5918C32.834 33.5449 38.1289 33.2871 38.1426 33.2871C40.2237 33.2821 42.2653 32.7189 44.0547 31.6562C45.8598 30.6023 47.3579 29.0946 48.4005 27.2829C49.443 25.4712 49.9938 23.4184 49.998 21.3281C50.0488 16.9512 48.4355 14.041 47.7832 12.752C43.6445 4.65625 34.7109 1.22391e-07 24.9961 1.22391e-07C18.4261 -0.000649526 12.12 2.58496 7.44157 7.1976C2.76314 11.8102 0.0884836 18.0791 -0.00390625 24.6484C0.0898438 17.5117 7.18359 11.748 15.6211 11.748C16.3047 11.748 20.2031 11.8145 23.8242 13.7148C27.0156 15.3906 28.6875 17.4141 29.8496 19.4199C31.0566 21.5039 31.2715 24.1367 31.2715 25.1855C31.2715 26.2344 30.7363 27.7891 29.748 29.0742Z" fill="url(#paint5_radial)"/>
</g>
<defs>
<linearGradient id="paint0_linear" x1="11.4648" y1="34.5801" x2="46.2969" y2="34.5801" gradientUnits="userSpaceOnUse">
<stop stop-color="#0C59A4"/>
<stop offset="1" stop-color="#114A8B"/>
</linearGradient>
<radialGradient id="paint1_radial" cx="0" cy="0" r="1" gradientUnits="userSpaceOnUse" gradientTransform="translate(30.7031 34.8546) scale(18.6289 17.6975)">
<stop offset="0.72" stop-opacity="0"/>
<stop offset="0.95" stop-opacity="0.53"/>
<stop offset="1"/>
</radialGradient>
<linearGradient id="paint2_linear" x1="29.8282" y1="19.4707" x2="8.0723" y2="43.168" gradientUnits="userSpaceOnUse">
<stop stop-color="#1B9DE2"/>
<stop offset="0.16" stop-color="#1595DF"/>
<stop offset="0.67" stop-color="#0680D7"/>
<stop offset="1" stop-color="#0078D4"/>
</linearGradient>
<radialGradient id="paint3_radial" cx="0" cy="0" r="1" gradientUnits="userSpaceOnUse" gradientTransform="translate(13.7841 38.8688) rotate(-81.3844) scale(28.0129 22.6316)">
<stop offset="0.76" stop-opacity="0"/>
<stop offset="0.95" stop-opacity="0.5"/>
<stop offset="1"/>
</radialGradient>
<radialGradient id="paint4_radial" cx="0" cy="0" r="1" gradientUnits="userSpaceOnUse" gradientTransform="translate(5.04736 9.25328) rotate(92.2906) scale(39.5687 84.2732)">
<stop stop-color="#35C1F1"/>
<stop offset="0.11" stop-color="#34C1ED"/>
<stop offset="0.23" stop-color="#2FC2DF"/>
<stop offset="0.31" stop-color="#2BC3D2"/>
<stop offset="0.67" stop-color="#36C752"/>
</radialGradient>
<radialGradient id="paint5_radial" cx="0" cy="0" r="1" gradientUnits="userSpaceOnUse" gradientTransform="translate(46.8852 15.1184) rotate(73.7398) scale(19.0117 15.4603)">
<stop stop-color="#66EB6E"/>
<stop offset="1" stop-color="#66EB6E" stop-opacity="0"/>
</radialGradient>
<clipPath id="clip0">
<rect width="50" height="50" fill="white"/>
</clipPath>
</defs>
</svg>
